<?xml version="1.0" encoding="UTF-8"?>
<svg id="b" data-name="Layer 2" xmlns="http://www.w3.org/2000/svg" width="300" height="50" viewBox="0 0 300 50">
  <g id="c" data-name="footer">
    <rect x="190" width="110" height="50" fill="#dd2834"/>
    <g id="d" data-name="logo">
      <path d="m203.11,17.81c6.8-2.08,10.23,3.13,10.23,3.13,0,0-2.16-7.27-10.23-3.13" fill="#fff"/>
      <path d="m213.57,21.73s.93-2.15,3.1-2.8c-.27-.25-.45-.63-.42-1.1-2.49,1.26-2.68,3.9-2.68,3.9" fill="#fff"/>
      <path d="m205.68,24.85c.6.01,1.19.07,1.78.06,0-.5.02-.93.01-1.43-.59.01-1.21-.06-1.81-.08,0-.28.02-.56.01-.84.5.02,1.63.1,1.89.09,0-.52.01-1.54.01-1.54-1.61-.05-3.47-.25-4.07-.32l-.1,6.32c1.42.12,2.92.22,4.18.21,0,0,0-1.54,0-1.52-.64.01-1.28-.04-1.92-.06,0-.3,0-.61,0-.91" fill="#fff"/>
      <path d="m212.62,21.08c-1.51.1-2.97.12-4.5.05l-.02,1.65c.6.03,1.13.03,1.13.03v4.58c.69.04,1.55.05,2.28-.03l-.03-4.54s1.01-.04,1.17-.06c0-.6-.02-1.08-.02-1.69" fill="#fff"/>
      <path d="m238.62,22.04c.39.02.82.1,1.21.13,0,1.59-.04,2.8-.04,4.4,1.07.13,1.84.25,2.13.31,0-1.59.06-2.86.06-4.45,0,0,1.14.18,1.16.19,0-.65,0-1.31,0-1.97-1.51-.28-3.02-.45-4.52-.53,0,.66,0,1.26,0,1.92" fill="#fff"/>
      <path d="m200.72,20.15l-2.71-.49-.02,6.63c.69.14,1.33.25,2,.32v-1.91c1.47.24,3.05.15,3.1-2.18.01-1.7-1.12-2.19-2.38-2.37m-.5,3.05c-.07,0-.13-.01-.2-.02,0-.44,0-.87.01-1.3.96-.15,1.21,1.45.19,1.32" fill="#fff"/>
      <path d="m223.96,20c-.36.95-.73,2.11-1.1,3.06-.35-.88-.7-1.91-1.05-2.79-.66.09-1.83.3-1.95.3-.23,2.05-.48,4.33-.71,6.39.52-.09,1.79-.29,2.17-.34.06-.77.12-1.59.17-2.35.29.73.59,1.46.88,2.19.16-.02.75-.11.94-.14.3-.79.6-1.53.91-2.32.05.75.08,1.44.13,2.19.75-.08,1.36-.13,2.12-.17-.2-2.01-.37-4.18-.56-6.19-.65.06-1.3.12-1.95.18" fill="#fff"/>
      <path d="m238.21,22.27c-.06-3.01-3.08-2.47-5.09-2.63-.03,2.13-.04,4.08-.07,6.21.68.02,1.42.07,2.02.12,0-.6.02-1.04.02-1.64.39.63.71,1.14,1.09,1.78.84.08,1.69.19,2.53.3-.52-.78-1-1.44-1.52-2.21.58-.26,1-.82,1.01-1.93m-2.89.57c-.07,0-.13,0-.2-.02,0-.42.01-.85.02-1.28.97-.18,1.2,1.4.18,1.29" fill="#fff"/>
      <path d="m228.6,19.64c-.56,2.06-1.21,4.27-1.77,6.35.62-.01,1.24-.05,1.86-.05.06-.22.12-.47.18-.69l.94-.02s.83-.03.83-.03c.02.08.1.3.21.66.62.02,1.24-.01,1.85.02-.67-2.19-1.34-4.29-1.95-6.28-.8,0-1.46.02-2.15.04m.67,4.15c.14-.53.28-1.09.42-1.61.16.53.32,1.06.48,1.59-.93.04-.93.02-.91.02" fill="#fff"/>
      <path d="m242.69,26.29c-.44,0-.44.69,0,.68.43,0,.44-.69,0-.68m0,.63c-.35,0-.36-.58,0-.57.35,0,.35.58,0,.57" fill="#fff"/>
      <path d="m242.75,26.64h0c.21-.11-.04-.25-.18-.19v.38h.06v-.16c.12-.03.13.1.15.16h.06s-.02-.19-.09-.18m-.08-.02h-.04v-.13c.13-.04.2.13.04.13" fill="#fff"/>
      <path d="m217.08,23.11c-.31-.13-.93-.04-1.01-.45.29-.73,1.4-.21,1.96-.05.2-.53.4-1.06.6-1.59-3.82-2.07-7.14,2.65-3.28,3.73,2.29.32.26,1.44-1.24.26-.25.55-.54,1.24-.78,1.8,4.38,2.43,7.65-2.58,3.74-3.69" fill="#fff"/>
      <path d="m218.42,19.19c-2.08-.04-2.04-3.21.04-3.19,2.08.04,2.04,3.2-.04,3.19Zm.65-2.59c-.72-.64-1.88.08-1.74,1.02.33-.65.99-1.04,1.71-1.03,0,0,.02,0,.03,0Z" fill="#fff"/>
      <g>
        <path d="m242.85,29.49c-.37,0-.37.58,0,.57.36,0,.36-.58,0-.57m0,.53c-.3,0-.3-.49,0-.48.29,0,.29.49,0,.48" fill="#fff"/>
        <path d="m242.9,29.78h0c.17-.09-.04-.21-.15-.16v.32h.05v-.14c.1-.03.11.08.12.14h.05s-.02-.16-.07-.15m-.07-.02h-.04v-.11c.11-.03.16.11.04.11" fill="#fff"/>
      </g>
      <g>
        <path d="m200.69,32.79s-.06-.01-.09-.03c-.04-.02-.06-.07-.06-.14v-.91c0-.23-.03-.44-.09-.62-.06-.18-.14-.33-.25-.45-.11-.12-.24-.22-.38-.28-.15-.06-.32-.1-.51-.1s-.37.03-.52.1c-.15.06-.29.16-.39.27-.11.12-.2.27-.26.44-.06.18-.09.38-.09.6v1.39h.81v-.66h.86v.19c0,.09.02.17.05.24.03.07.07.12.12.17.05.04.1.08.15.1.06.02.11.03.16.03.08,0,.16-.01.23-.03.07-.02.14-.05.2-.09.06-.04.11-.08.15-.13.03-.04.05-.08.07-.12-.02.01-.05.02-.07.03-.03.01-.07.02-.09.02Zm-.96-.9v.04h-.86v-.31c0-.26.03-.44.09-.56.06-.12.18-.18.35-.18.15,0,.26.07.32.2.06.12.09.31.09.55v.26Z" fill="#fff"/>
        <path d="m203.12,31.56v.11s-.08-.08-.08-.08l-1.09-1.17c-.05-.06-.19-.15-.31-.15-.04,0-.08,0-.11.03-.13.07-.18.2-.18.43v2.34h.8v-1.16s0-.11,0-.11l.08.08,1,1.08s.11.09.17.13c.07.04.14.05.22.05.03,0,.06,0,.1-.02.03-.01.07-.03.1-.06.03-.02.05-.05.07-.09.02-.03.03-.07.03-.11v-2.53h-.79v1.22Z" fill="#fff"/>
        <path d="m217.41,31.56v.11s-.08-.08-.08-.08l-1.09-1.17c-.05-.06-.19-.15-.31-.15-.04,0-.08,0-.11.03-.13.07-.18.2-.18.43v2.34h.8v-1.16s0-.11,0-.11l.08.08,1,1.08s.11.09.17.13c.07.04.14.05.22.05.03,0,.06,0,.1-.02.03-.01.07-.03.1-.06.03-.02.05-.05.07-.09.02-.03.03-.07.03-.11v-2.53h-.79v1.22Z" fill="#fff"/>
        <path d="m206.27,30.93c0,.26-.04.45-.11.58-.08.13-.2.2-.37.2s-.3-.07-.37-.2c-.07-.13-.11-.32-.11-.58v-.58h-.81v.53c0,.17.02.34.06.49.04.15.1.28.18.4.08.11.17.21.28.29.11.08.23.13.36.17h.03v.85h.83v-.85h.03c.13-.04.25-.1.35-.18.1-.08.19-.17.26-.29.07-.11.13-.25.16-.4.04-.15.06-.31.06-.49v-.53h-.81v.58Z" fill="#fff"/>
        <polygon points="207.61 30.98 208.39 30.98 208.43 30.98 208.43 31.03 208.44 33.07 209.27 33.07 209.27 31.03 209.27 30.98 209.31 30.98 210.13 30.98 210.13 30.34 207.6 30.34 207.61 30.98" fill="#fff"/>
        <polygon points="212.29 31.45 212.29 31.5 212.24 31.5 211.55 31.5 211.5 31.5 211.5 31.45 211.5 30.34 210.67 30.34 210.67 33.07 211.5 33.07 211.5 32.14 211.5 32.09 211.54 32.09 212.24 32.09 212.29 32.09 212.29 32.14 212.29 33.07 213.12 33.07 213.12 30.34 212.29 30.34 212.29 31.45" fill="#fff"/>
        <rect x="213.92" y="30.34" width=".82" height="2.73" fill="#fff"/>
        <path d="m221.36,31.76s-.05-.06-.09-.08c-.03-.02-.08-.03-.13-.03h-1.09v.48h.62v.04c0,.06-.02.11-.05.15-.03.04-.08.07-.13.1-.05.03-.11.05-.17.06-.06.01-.12.02-.18.02-.4,0-.6-.28-.6-.83,0-.13.02-.25.05-.35.03-.1.08-.18.14-.24.06-.06.12-.11.2-.14.07-.03.15-.05.23-.05s.15,0,.22.02c.07.01.13.03.19.05.06.02.1.05.14.09.04.04.06.09.06.14,0,.03,0,.06-.02.09.18-.03.31-.07.39-.12.08-.06.12-.15.12-.28,0-.08-.02-.15-.07-.22-.05-.07-.13-.14-.22-.19-.1-.06-.21-.1-.35-.14-.13-.03-.28-.05-.45-.05h-.03c-.18,0-.36.03-.53.1-.16.06-.31.15-.44.27-.13.12-.23.27-.3.44-.07.18-.11.38-.11.62s.04.44.11.62c.08.18.18.33.31.45.13.12.27.21.44.27.17.06.34.09.52.09.2,0,.38-.03.54-.09.16-.06.29-.14.4-.24.11-.1.19-.22.25-.36.06-.14.09-.28.09-.44,0-.04,0-.09-.02-.13-.01-.04-.03-.08-.05-.12Z" fill="#fff"/>
        <path d="m227.47,31.36c-.1-.08-.22-.14-.35-.18-.14-.04-.29-.06-.45-.06s-.31.02-.45.06c-.13.04-.25.1-.35.17-.1.08-.17.18-.23.3-.06.12-.08.28-.08.46s.03.32.08.45c.05.12.13.23.23.31.1.08.22.14.35.18.14.04.29.06.45.06s.32-.02.45-.06c.13-.04.25-.1.35-.18.1-.08.17-.18.23-.31.05-.13.08-.28.08-.46s-.03-.32-.08-.45c-.05-.12-.13-.23-.23-.3Zm-.49,1.03c-.06.08-.17.12-.31.12s-.24-.04-.3-.13c-.06-.08-.08-.17-.08-.28,0-.11.03-.21.08-.28.06-.08.16-.12.3-.12s.25.04.31.12c.06.08.09.17.09.28s-.03.21-.09.28Z" fill="#fff"/>
        <path d="m229.59,31.13c-.12,0-.22.02-.3.07-.09.05-.16.1-.23.16l-.07.06v-.24h-.76v1.89h.76v-1.08h.01c.06-.08.13-.12.2-.16.08-.03.15-.05.21-.05.07,0,.13.02.19.05.06.03.09.08.11.14h0s.14-.8.14-.8c-.03-.02-.06-.03-.11-.03-.06,0-.11-.01-.14-.01Z" fill="#fff"/>
        <path d="m234.44,30.57c-.18-.15-.44-.23-.77-.23h-1.29s0,2.29,0,2.29c0,.06-.02.1-.06.13-.03.02-.06.03-.09.03-.03,0-.06,0-.1-.02-.02,0-.04-.02-.07-.03.02.04.04.08.07.12.04.05.09.1.15.13.06.04.13.07.2.09.07.02.15.03.23.03.05,0,.11-.01.17-.03.06-.02.11-.05.16-.1.05-.04.09-.1.12-.17.02-.05.04-.12.04-.19v-.44s0-.04,0-.04h.46c.16,0,.3-.02.43-.06.13-.04.24-.1.33-.18.09-.08.16-.17.21-.28.05-.11.08-.24.08-.39,0-.31-.09-.54-.27-.68Zm-.62.96c-.07.08-.17.12-.3.12h-.31v-.75h.35c.12,0,.21.03.28.1.06.07.1.16.1.26s-.04.19-.11.27Z" fill="#fff"/>
        <path d="m236.07,32.31v-.26h1.07v-.59h-1.07v-.05s0-.41,0-.41v-.04s.05,0,.05,0h1.3s0-.63,0-.63h-2.17s0,2.3,0,2.3c0,.13.05.23.14.31.1.08.23.12.38.12h1.69v-.63h-1.27c-.08,0-.12-.05-.12-.13Z" fill="#fff"/>
        <polygon points="237.88 30.98 238.66 30.98 238.71 30.98 238.71 31.03 238.71 33.07 239.54 33.07 239.54 31.03 239.54 30.98 239.59 30.98 240.4 30.98 240.4 30.34 237.88 30.34 237.88 30.98" fill="#fff"/>
        <path d="m243.02,32.01c-.02-.07-.06-.13-.1-.18-.04-.05-.09-.1-.14-.13-.05-.04-.11-.07-.17-.1-.11-.05-.23-.1-.36-.12-.13-.03-.25-.05-.36-.08-.11-.02-.21-.05-.28-.09-.11-.05-.13-.13-.13-.19s.03-.13.15-.18c.09-.03.19-.05.31-.05.08,0,.15,0,.22.02.07.01.13.03.19.05.06.02.1.05.14.09.04.04.06.09.06.14,0,.03,0,.06-.02.09.18-.03.31-.07.39-.12.08-.06.12-.15.12-.28,0-.08-.03-.15-.08-.23-.05-.07-.13-.14-.23-.2-.1-.06-.22-.1-.35-.14-.14-.03-.29-.05-.45-.05-.13,0-.26.02-.41.05-.15.03-.28.09-.41.16-.12.07-.23.17-.31.28-.08.11-.12.25-.12.41s.03.31.1.42c.07.11.16.2.28.27.11.06.23.11.35.14.13.03.24.06.35.08.11.02.2.05.27.07.11.04.14.11.14.16,0,.05-.02.1-.06.13-.03.03-.07.05-.12.06-.04.01-.09.02-.14.03-.05,0-.09,0-.12,0-.18,0-.35-.03-.51-.07-.16-.05-.31-.11-.46-.18,0,0,0,0,0,0,0,0-.01.01-.01.02v.55s0,.01,0,.01c.04.03.1.06.16.09.07.03.14.06.23.09.09.03.19.05.3.07.11.02.24.03.37.03s.28-.02.43-.05c.14-.03.28-.08.4-.15.12-.07.22-.16.3-.27.08-.11.11-.25.11-.41,0-.09-.01-.18-.04-.25Z" fill="#fff"/>
        <path d="m225.17,30.76l.11-.52c-.69-.31-1.45.19-1.32,1.01h-.24v.47h.24v1.03c-.01.24-.21-.01-.25.08.12.45.96.6.97-.11,0,0,0-1.01,0-1.01h.53v-.47h-.53v-.18c0-.31.26-.43.49-.31Z" fill="#fff"/>
      </g>
    </g>
  </g>
  <g id="e" data-name="rect">
    <rect width="300" height="50" fill="none"/>
  </g>
</svg>