<?xml version="1.0" encoding="UTF-8"?>
<svg id="b" data-name="Layer 2" xmlns="http://www.w3.org/2000/svg" width="970" height="250" viewBox="0 0 970 250">
  <g id="c" data-name="Button">
    <rect x="43" y="139" width="164" height="43" fill="#dd2834"/>
    <g id="d" data-name="SHOP NOW">
      <path d="m65.04,165.08l2.69-2.25c.77,1.12,2.1,1.77,3.24,1.77s1.9-.52,1.9-1.29-.6-1.33-2.18-1.86l-1.1-.37c-2.56-.85-3.95-2.36-3.95-4.48,0-3.02,2.29-4.79,5.41-4.79,1.92,0,3.57.57,5.05,2.14l-2.29,2.41c-.73-.87-1.72-1.29-2.71-1.29s-1.9.37-1.9,1.18c0,.85.75,1.2,2.43,1.79l1.1.39c2.27.81,3.75,2.3,3.73,4.64,0,2.82-2.34,4.79-5.6,4.79-2.49,0-4.57-1.03-5.8-2.78Z" fill="#fff"/>
      <path d="m78.88,152.07h3.51v6.08h6.31v-6.08h3.51v15.52h-3.51v-6.14h-6.31v6.14h-3.51v-15.52Z" fill="#fff"/>
      <path d="m94.64,159.83c0-4.42,3.62-8.02,8.1-8.02s8.1,3.61,8.1,8.02-3.64,8.03-8.1,8.03-8.1-3.61-8.1-8.03Zm12.64,0c0-2.51-2.01-4.66-4.55-4.66s-4.57,2.14-4.57,4.66,2.01,4.66,4.57,4.66,4.55-2.14,4.55-4.66Z" fill="#fff"/>
      <path d="m118.58,162.67h-1.81v4.92h-3.51v-15.52h5.32c3.16,0,5.52,2.32,5.52,5.31s-2.36,5.29-5.52,5.29Zm-.04-7.33h-1.77v4.07h1.77c1.26,0,2.16-.9,2.16-2.03s-.9-2.03-2.16-2.03Z" fill="#fff"/>
      <path d="m141.84,167.59l-7.63-9.6v9.6h-3.51v-15.52h3.02l7.61,9.6v-9.6h3.53v15.52h-3.02Z" fill="#fff"/>
      <path d="m147.3,159.83c0-4.42,3.62-8.02,8.1-8.02s8.1,3.61,8.1,8.02-3.64,8.03-8.1,8.03-8.1-3.61-8.1-8.03Zm12.64,0c0-2.51-2.01-4.66-4.55-4.66s-4.57,2.14-4.57,4.66,2.01,4.66,4.57,4.66,4.55-2.14,4.55-4.66Z" fill="#fff"/>
      <path d="m174.73,160l-3.33,7.59h-3.33l-3.62-15.52h3.75l2.14,9.84,4.39-10.1,4.41,10.1,2.14-9.84h3.75l-3.64,15.52h-3.33l-3.33-7.59Z" fill="#fff"/>
    </g>
  </g>
  <g id="e" data-name="footer">
    <rect y="203" width="970" height="47" fill="#dd2834"/>
    <g id="f" data-name="logo">
      <path d="m777.38,213.96c11.16-3.41,16.79,5.14,16.79,5.14,0,0-3.54-11.93-16.79-5.14" fill="#fff"/>
      <path d="m794.54,220.4s1.52-3.53,5.09-4.6c-.44-.41-.74-1.04-.69-1.8-4.09,2.07-4.4,6.4-4.4,6.4" fill="#fff"/>
      <path d="m781.59,225.52c.98.02,1.95.11,2.92.1,0-.82.03-1.53.02-2.35-.97.02-1.98-.1-2.96-.12,0-.46.03-.92.02-1.37.82.03,2.67.16,3.1.14,0-.85.02-2.53.02-2.53-2.65-.08-5.69-.4-6.67-.52l-.16,10.37c2.33.19,4.79.37,6.86.35,0,0,0-2.52.02-2.49-1.05.02-2.1-.07-3.15-.09,0-.5,0-.99-.01-1.49" fill="#fff"/>
      <path d="m792.98,219.33c-2.48.16-4.87.2-7.38.09l-.04,2.7c.98.05,1.86.06,1.86.06v7.52c1.13.06,2.55.08,3.73-.05l-.04-7.45s1.66-.07,1.92-.1c-.01-.99-.03-1.77-.04-2.77" fill="#fff"/>
      <path d="m835.65,220.91c.63.03,1.35.16,1.99.22,0,2.61-.06,4.6-.07,7.22,1.76.21,3.02.42,3.5.5,0-2.62.11-4.69.11-7.31,0,0,1.87.29,1.9.31,0-1.07,0-2.15,0-3.23-2.47-.46-4.95-.74-7.42-.87,0,1.08,0,2.07,0,3.15" fill="#fff"/>
      <path d="m773.47,217.8l-4.44-.81-.02,10.88c1.13.22,2.18.41,3.29.53v-3.14c2.4.39,5.01.25,5.08-3.57.02-2.78-1.84-3.59-3.9-3.89m-.82,5.01c-.11-.01-.22-.02-.33-.03.01-.72.02-1.42.02-2.14,1.57-.25,1.99,2.37.31,2.17" fill="#fff"/>
      <path d="m811.58,217.56c-.6,1.56-1.2,3.46-1.8,5.01-.57-1.44-1.15-3.14-1.73-4.58-1.08.15-3.01.49-3.2.49-.37,3.37-.79,7.11-1.16,10.48.85-.15,2.93-.48,3.55-.56.1-1.26.19-2.6.29-3.86.48,1.2.96,2.4,1.44,3.6.27-.04,1.23-.19,1.55-.24.5-1.3.99-2.51,1.49-3.8.08,1.23.13,2.36.21,3.6,1.24-.14,2.23-.21,3.48-.29-.32-3.3-.6-6.85-.92-10.15-1.06.09-2.13.19-3.2.29" fill="#fff"/>
      <path d="m834.97,221.28c-.1-4.94-5.06-4.05-8.35-4.31-.04,3.49-.06,6.69-.11,10.19,1.11.03,2.33.11,3.31.2.01-.99.03-1.71.04-2.7.64,1.03,1.16,1.87,1.79,2.92,1.37.13,2.77.3,4.14.5-.86-1.28-1.63-2.37-2.49-3.62.95-.43,1.63-1.35,1.66-3.17m-4.74.93c-.11,0-.22-.02-.33-.03.01-.7.02-1.4.03-2.1,1.6-.3,1.97,2.3.3,2.12" fill="#fff"/>
      <path d="m819.21,216.97c-.91,3.38-1.98,7.01-2.9,10.41,1.01-.02,2.04-.09,3.05-.09.09-.36.2-.77.29-1.13l1.54-.04s1.37-.04,1.37-.04c.04.13.16.49.34,1.08,1.01.03,2.03-.02,3.04.03-1.1-3.59-2.21-7.04-3.21-10.3-1.32,0-2.4.02-3.53.07m1.1,6.8c.23-.87.47-1.78.7-2.65.26.87.53,1.74.8,2.61-1.52.06-1.52.04-1.49.04" fill="#fff"/>
      <path d="m842.32,227.88c-.72-.01-.72,1.13,0,1.12.71.02.71-1.13,0-1.12m0,1.03c-.58.01-.58-.95,0-.94.57-.01.57.95,0,.94" fill="#fff"/>
      <path d="m842.41,228.45h0c.34-.18-.07-.41-.3-.32v.62h.1v-.26c.19-.06.21.16.24.26h.1s-.04-.32-.14-.3m-.13-.04h-.07v-.21c.22-.06.32.21.07.21" fill="#fff"/>
      <path d="m800.3,222.67c-.51-.22-1.53-.06-1.65-.73.47-1.2,2.29-.34,3.22-.08.33-.87.66-1.74.99-2.61-6.27-3.4-11.72,4.35-5.38,6.12,3.76.53.43,2.36-2.03.42-.4.91-.88,2.04-1.29,2.95,7.19,3.98,12.55-4.24,6.13-6.06" fill="#fff"/>
      <path d="m802.51,216.23c-3.42-.07-3.35-5.26.07-5.23,3.42.06,3.35,5.26-.07,5.23Zm1.06-4.25c-1.18-1.05-3.08.14-2.85,1.67.55-1.07,1.62-1.7,2.81-1.68.01,0,.03.01.04.02Z" fill="#fff"/>
      <g>
        <path d="m842.59,233.13c-.6-.01-.6.95,0,.94.6.01.6-.94,0-.94m0,.86c-.49,0-.49-.8,0-.79.48-.01.48.8,0,.79" fill="#fff"/>
        <path d="m842.67,233.61h0c.29-.15-.06-.35-.25-.27v.52h.08v-.22c.16-.05.17.14.2.22h.09s-.03-.27-.12-.25m-.11-.03h-.06v-.18c.19-.05.27.18.06.18" fill="#fff"/>
      </g>
      <g>
        <path d="m773.42,238.55s-.09-.02-.15-.05c-.06-.04-.1-.12-.1-.23v-1.49c0-.38-.05-.72-.15-1.02-.1-.29-.23-.54-.41-.74-.17-.2-.39-.35-.63-.46-.25-.11-.53-.16-.83-.16s-.6.05-.85.16c-.25.1-.47.25-.65.45-.18.2-.32.44-.42.73-.1.29-.15.62-.15.99v2.28h1.34v-1.08h1.41v.3c0,.15.03.28.07.39.05.11.11.2.19.27.08.07.16.13.25.16.09.03.18.05.27.05.13,0,.26-.02.37-.06.12-.04.23-.09.32-.15.09-.06.17-.14.24-.22.05-.06.09-.13.12-.2-.04.02-.07.04-.11.05-.06.02-.11.03-.16.03Zm-1.57-1.48v.07h-1.41v-.52c0-.43.05-.72.15-.91.11-.2.3-.3.58-.3.25,0,.42.11.53.34.1.21.15.51.15.9v.42Z" fill="#fff"/>
        <path d="m777.41,236.52v.19s-.13-.14-.13-.14l-1.79-1.92c-.09-.09-.3-.24-.51-.24-.07,0-.13.02-.18.04-.21.11-.3.33-.3.71v3.84h1.32v-1.9s0-.19,0-.19l.13.14,1.65,1.77c.08.08.17.15.29.22.11.06.23.09.36.09.05,0,.11-.01.16-.03.06-.02.11-.05.16-.09.05-.04.09-.09.12-.15.03-.06.04-.12.04-.18v-4.15h-1.3v2Z" fill="#fff"/>
        <path d="m800.84,236.52v.19s-.13-.14-.13-.14l-1.79-1.92c-.09-.09-.3-.24-.51-.24-.07,0-.13.02-.18.04-.21.11-.3.33-.3.71v3.84h1.32v-1.9s0-.19,0-.19l.13.14,1.65,1.77c.08.08.17.15.29.22.11.06.23.09.36.09.05,0,.11-.01.16-.03.06-.02.11-.05.16-.09.05-.04.09-.09.12-.15.03-.06.04-.12.04-.18v-4.15h-1.3v2Z" fill="#fff"/>
        <path d="m782.57,235.49c0,.43-.06.74-.18.95-.13.22-.33.33-.61.33s-.49-.11-.61-.33c-.12-.21-.18-.52-.18-.95v-.96h-1.34v.86c0,.29.03.56.1.8.07.24.16.46.29.65.12.19.28.35.45.47.18.13.37.22.59.28h.05v1.4h1.36v-1.39h.05c.21-.07.41-.17.57-.29.17-.13.31-.28.43-.47.12-.19.21-.41.27-.65.06-.25.09-.52.09-.8v-.86h-1.34v.96Z" fill="#fff"/>
        <polygon points="784.76 235.58 786.04 235.58 786.12 235.58 786.12 235.65 786.12 239.01 787.48 239.01 787.48 235.65 787.48 235.58 787.56 235.58 788.9 235.58 788.9 234.53 784.75 234.53 784.76 235.58" fill="#fff"/>
        <polygon points="792.44 236.35 792.44 236.43 792.37 236.43 791.22 236.43 791.15 236.43 791.15 236.35 791.15 234.53 789.79 234.53 789.79 239 791.14 239 791.14 237.47 791.14 237.4 791.22 237.4 792.37 237.4 792.44 237.4 792.44 237.47 792.44 239 793.81 239 793.81 234.53 792.44 234.53 792.44 236.35" fill="#fff"/>
        <rect x="795.12" y="234.53" width="1.35" height="4.48" fill="#fff"/>
        <path d="m807.32,236.85c-.04-.05-.09-.1-.14-.13-.06-.03-.13-.05-.21-.05h-1.79v.79h1.02v.07c0,.1-.03.18-.09.25-.05.06-.12.12-.21.16-.08.04-.17.07-.27.1-.1.02-.2.03-.3.03-.65,0-.98-.46-.98-1.37,0-.22.03-.41.08-.57.05-.16.13-.3.22-.4.09-.1.2-.18.33-.23.12-.05.25-.07.38-.07s.25,0,.36.03c.12.02.22.05.31.08.09.04.17.08.23.14.06.06.1.14.1.23,0,.05-.01.1-.03.15.29-.04.5-.11.64-.2.14-.09.2-.24.2-.45,0-.13-.04-.25-.12-.37-.08-.12-.21-.23-.36-.32-.16-.09-.35-.17-.57-.23-.22-.06-.47-.09-.73-.09h-.05c-.3,0-.59.06-.86.16-.27.1-.51.25-.72.44-.21.19-.37.44-.5.73-.12.29-.19.63-.19,1.01s.06.73.19,1.02c.13.29.29.54.5.74.21.2.45.35.72.45.27.1.56.15.85.15.33,0,.63-.05.89-.15.26-.1.48-.23.66-.4.18-.17.32-.36.41-.58.09-.22.14-.46.14-.72,0-.07,0-.14-.03-.21-.02-.07-.05-.13-.09-.19Z" fill="#fff"/>
        <path d="m817.35,236.2c-.16-.13-.35-.23-.57-.3-.22-.07-.47-.1-.74-.1s-.51.03-.74.09c-.22.06-.41.16-.57.29-.16.13-.28.3-.37.5-.09.2-.14.46-.14.75s.05.53.14.74c.09.2.22.37.38.51.16.13.35.24.57.3.22.07.47.1.73.1s.52-.03.74-.1c.22-.06.41-.16.57-.3.16-.13.28-.3.37-.51.09-.21.13-.46.13-.75s-.04-.53-.13-.73c-.09-.2-.21-.37-.37-.5Zm-.81,1.69c-.1.13-.27.2-.51.2s-.4-.07-.49-.21c-.09-.13-.14-.28-.14-.46,0-.18.05-.34.14-.46.1-.13.26-.2.49-.2s.4.07.51.2c.1.12.14.28.14.46s-.05.34-.14.47Z" fill="#fff"/>
        <path d="m820.83,235.83c-.19,0-.35.04-.49.12-.14.08-.27.17-.38.26l-.12.1v-.4h-1.24v3.1h1.24v-1.77l.02-.02c.09-.1.21-.18.33-.23.12-.05.24-.07.34-.07.11,0,.21.03.31.09.09.06.16.13.18.23h0s.22-1.32.22-1.32c-.04-.02-.1-.04-.18-.06-.1-.01-.18-.02-.24-.02Z" fill="#fff"/>
        <path d="m828.79,234.9c-.3-.25-.72-.37-1.26-.37h-2.12s0,3.76,0,3.76c0,.1-.03.17-.1.21-.05.03-.1.05-.15.05-.05,0-.1-.01-.16-.03-.04-.01-.07-.03-.11-.05.03.07.07.14.12.2.07.08.15.16.24.22.1.06.21.12.33.15.12.04.25.06.38.06.09,0,.18-.02.27-.05.09-.03.18-.09.26-.16.08-.07.14-.16.19-.27.04-.09.06-.19.07-.31v-.72s0-.07,0-.07h.75c.25,0,.49-.03.7-.1.21-.07.39-.16.54-.29.15-.12.27-.28.35-.47.08-.18.13-.4.13-.64,0-.5-.15-.88-.45-1.12Zm-1.02,1.58c-.12.13-.29.19-.49.19h-.51v-1.24h.57c.2,0,.35.06.46.17.11.11.16.26.16.43s-.06.32-.18.44Z" fill="#fff"/>
        <path d="m831.46,237.76v-.43h1.76v-.96h-1.76v-.07s0-.67,0-.67v-.07s.07,0,.07,0h2.14s0-1.03,0-1.03h-3.56s0,3.77,0,3.77c0,.22.08.38.23.51.16.13.37.19.62.19h2.77v-1.04h-2.08c-.12,0-.2-.08-.2-.21Z" fill="#fff"/>
        <polygon points="834.43 235.58 835.71 235.58 835.79 235.58 835.79 235.65 835.79 239.01 837.16 239.01 837.16 235.65 837.16 235.58 837.23 235.58 838.57 235.58 838.57 234.53 834.43 234.53 834.43 235.58" fill="#fff"/>
        <path d="m842.87,237.26c-.04-.11-.09-.21-.16-.3-.07-.08-.14-.16-.23-.22-.09-.06-.18-.12-.28-.16-.19-.09-.38-.16-.59-.2-.21-.05-.41-.09-.59-.13-.18-.04-.34-.09-.46-.14-.18-.08-.22-.21-.22-.3s.04-.22.25-.3c.14-.05.32-.08.52-.08.13,0,.25,0,.36.03.12.02.22.05.31.08.09.04.17.08.23.14.06.06.1.14.1.23,0,.05-.01.1-.03.15.29-.04.5-.11.64-.2.14-.09.2-.24.2-.45,0-.13-.04-.25-.13-.37-.09-.12-.21-.23-.37-.32-.16-.09-.36-.17-.58-.23-.22-.06-.47-.08-.74-.08-.21,0-.43.03-.67.08-.24.05-.47.14-.67.26-.2.12-.38.27-.51.46-.13.18-.2.41-.2.68s.06.51.16.69c.11.18.26.33.46.44.18.1.38.18.58.23.21.05.4.09.57.13.18.04.33.07.45.11.18.06.22.17.22.25,0,.09-.03.16-.1.21-.05.04-.12.08-.19.1-.07.02-.15.04-.23.05-.07,0-.14.01-.19.01-.3,0-.58-.04-.84-.12-.26-.08-.51-.18-.75-.29,0,0,0,0,0,0,0,0-.02.02-.02.03v.91s0,.02,0,.02c.07.04.16.09.27.15.11.05.24.1.38.15.15.04.31.08.5.11.18.03.39.05.6.05s.46-.03.7-.08c.24-.05.46-.13.66-.25.19-.11.36-.26.48-.45.12-.18.19-.41.19-.67,0-.15-.02-.29-.06-.41Z" fill="#fff"/>
        <path d="m813.57,235.22l.18-.85c-1.14-.51-2.37.32-2.16,1.67h-.39v.77h.39v1.69c-.02.39-.34-.02-.42.13.19.74,1.58.98,1.6-.17,0,0,0-1.65,0-1.65h.87v-.77h-.87v-.3c.01-.51.43-.71.81-.52Z" fill="#fff"/>
      </g>
    </g>
  </g>
  <g id="g" data-name="rect">
    <rect width="970" height="250" fill="none"/>
  </g>
</svg>