<?xml version="1.0" encoding="UTF-8"?>
<svg id="b" data-name="Layer 2" xmlns="http://www.w3.org/2000/svg" width="160" height="600" viewBox="0 0 160 600">
  <g id="c" data-name="cta">
    <rect x="19" y="282.51" width="108.76" height="28.95" fill="#dd2834"/>
    <g id="d" data-name="SHOP NOW">
      <path d="m33.91,300.16l1.78-1.5c.51.75,1.39,1.18,2.15,1.18s1.26-.35,1.26-.86-.39-.89-1.45-1.24l-.73-.25c-1.69-.57-2.61-1.58-2.61-2.99,0-2.02,1.52-3.2,3.58-3.2,1.27,0,2.37.38,3.34,1.43l-1.52,1.61c-.48-.58-1.14-.86-1.8-.86s-1.26.25-1.26.79c0,.57.5.8,1.61,1.2l.73.26c1.5.54,2.48,1.53,2.47,3.1,0,1.88-1.55,3.2-3.71,3.2-1.65,0-3.02-.69-3.84-1.85Z" fill="#fff"/>
      <path d="m43.07,291.47h2.32v4.06h4.18v-4.06h2.32v10.37h-2.32v-4.1h-4.18v4.1h-2.32v-10.37Z" fill="#fff"/>
      <path d="m53.49,296.66c0-2.95,2.39-5.36,5.36-5.36s5.36,2.41,5.36,5.36-2.41,5.36-5.36,5.36-5.36-2.41-5.36-5.36Zm8.37,0c0-1.68-1.33-3.11-3.01-3.11s-3.02,1.43-3.02,3.11,1.33,3.11,3.02,3.11,3.01-1.43,3.01-3.11Z" fill="#fff"/>
      <path d="m69.33,298.55h-1.2v3.29h-2.32v-10.37h3.52c2.09,0,3.65,1.55,3.65,3.55s-1.56,3.53-3.65,3.53Zm-.03-4.89h-1.17v2.72h1.17c.83,0,1.43-.6,1.43-1.36s-.6-1.36-1.43-1.36Z" fill="#fff"/>
      <path d="m84.72,301.84l-5.05-6.41v6.41h-2.32v-10.37h2l5.04,6.41v-6.41h2.34v10.37h-2Z" fill="#fff"/>
      <path d="m88.33,296.66c0-2.95,2.4-5.36,5.36-5.36s5.36,2.41,5.36,5.36-2.41,5.36-5.36,5.36-5.36-2.41-5.36-5.36Zm8.37,0c0-1.68-1.33-3.11-3.01-3.11s-3.02,1.43-3.02,3.11,1.33,3.11,3.02,3.11,3.01-1.43,3.01-3.11Z" fill="#fff"/>
      <path d="m106.48,296.77l-2.21,5.07h-2.2l-2.4-10.37h2.48l1.42,6.57,2.91-6.75,2.92,6.75,1.42-6.57h2.48l-2.41,10.37h-2.21l-2.21-5.07Z" fill="#fff"/>
    </g>
  </g>
  <g id="e" data-name="footer">
    <rect y="553" width="160" height="47" fill="#dd2834"/>
    <g id="f" data-name="logo">
      <path d="m26.2,561.42c9.66-2.95,14.53,4.44,14.53,4.44,0,0-3.06-10.32-14.53-4.44" fill="#fff"/>
      <path d="m41.05,566.99s1.31-3.06,4.4-3.98c-.38-.36-.64-.9-.6-1.56-3.54,1.79-3.81,5.54-3.81,5.54" fill="#fff"/>
      <path d="m29.85,571.42c.85.02,1.69.1,2.53.09,0-.71.02-1.32.02-2.03-.84.02-1.72-.09-2.56-.11,0-.39.02-.8.02-1.19.71.02,2.31.14,2.68.12,0-.73.02-2.19.02-2.19-2.29-.07-4.93-.35-5.78-.45l-.14,8.98c2.02.17,4.15.32,5.94.3,0,0,0-2.18.01-2.15-.91.01-1.82-.06-2.73-.08,0-.43,0-.86,0-1.29" fill="#fff"/>
      <path d="m39.7,566.06c-2.15.14-4.22.18-6.39.07l-.03,2.34c.85.05,1.61.05,1.61.05v6.5c.98.05,2.21.07,3.23-.05l-.04-6.44s1.43-.06,1.66-.08c-.01-.86-.02-1.54-.03-2.39" fill="#fff"/>
      <path d="m76.62,567.43c.55.03,1.17.14,1.72.19,0,2.26-.05,3.98-.06,6.25,1.52.18,2.61.36,3.03.43,0-2.26.09-4.06.09-6.32,0,0,1.62.25,1.64.27,0-.93,0-1.86,0-2.79-2.14-.4-4.28-.64-6.42-.75,0,.93,0,1.79,0,2.72" fill="#fff"/>
      <path d="m22.81,564.74l-3.84-.7-.02,9.42c.98.19,1.89.36,2.84.46v-2.72c2.08.34,4.33.22,4.4-3.09.02-2.41-1.59-3.11-3.37-3.37m-.71,4.34c-.09-.01-.19-.02-.29-.03,0-.62.01-1.23.02-1.85,1.36-.22,1.72,2.05.27,1.88" fill="#fff"/>
      <path d="m55.8,564.53c-.52,1.35-1.03,2.99-1.56,4.34-.5-1.25-1-2.71-1.49-3.96-.94.13-2.6.42-2.77.43-.32,2.91-.68,6.15-1.01,9.07.74-.13,2.53-.42,3.08-.48.08-1.09.17-2.25.25-3.34.42,1.04.83,2.08,1.25,3.11.23-.03,1.06-.16,1.34-.2.43-1.12.86-2.17,1.29-3.29.07,1.07.11,2.04.18,3.11,1.07-.12,1.93-.18,3.01-.25-.28-2.86-.52-5.93-.8-8.79-.92.08-1.84.16-2.77.25" fill="#fff"/>
      <path d="m76.04,567.75c-.09-4.27-4.38-3.5-7.22-3.73-.04,3.02-.05,5.79-.09,8.82.96.03,2.02.1,2.86.17.01-.85.03-1.48.03-2.33.55.89,1,1.62,1.55,2.52,1.19.11,2.4.26,3.59.43-.74-1.11-1.41-2.05-2.15-3.13.82-.37,1.41-1.17,1.44-2.74m-4.11.81c-.1,0-.19-.01-.29-.02.01-.6.02-1.21.03-1.82,1.38-.26,1.71,1.99.26,1.84" fill="#fff"/>
      <path d="m62.39,564.02c-.79,2.93-1.72,6.07-2.51,9.01.88-.01,1.77-.08,2.64-.08.08-.31.17-.67.25-.98l1.34-.03s1.18-.04,1.18-.04c.03.11.14.42.29.93.87.02,1.75-.02,2.63.03-.95-3.11-1.91-6.09-2.77-8.91-1.14,0-2.08.02-3.06.06m.96,5.89c.2-.75.4-1.54.6-2.29.23.75.46,1.51.69,2.26-1.32.05-1.32.03-1.29.03" fill="#fff"/>
      <path d="m82.39,573.46c-.62-.01-.62.98,0,.97.61.01.62-.97,0-.97m0,.89c-.5,0-.5-.82,0-.81.5-.01.5.82,0,.81" fill="#fff"/>
      <path d="m82.48,573.96h0c.3-.16-.06-.36-.26-.27v.54h.09v-.23c.16-.05.18.14.21.23h.09s-.03-.27-.12-.26m-.11-.03h-.06v-.18c.19-.05.28.18.06.18" fill="#fff"/>
      <path d="m46.03,568.95c-.44-.19-1.32-.05-1.43-.64.41-1.04,1.98-.29,2.79-.07.28-.75.57-1.51.86-2.26-5.42-2.94-10.14,3.76-4.65,5.3,3.25.46.37,2.04-1.76.36-.35.79-.76,1.76-1.11,2.55,6.23,3.45,10.86-3.67,5.31-5.24" fill="#fff"/>
      <path d="m47.94,563.38c-2.96-.06-2.9-4.56.06-4.53,2.96.05,2.9,4.55-.06,4.53Zm.92-3.68c-1.02-.91-2.66.12-2.47,1.44.48-.92,1.4-1.47,2.43-1.46.01,0,.02.01.04.01Z" fill="#fff"/>
      <g>
        <path d="m82.63,578c-.52,0-.52.82,0,.81.52.01.52-.82,0-.81m0,.75c-.42,0-.42-.69,0-.68.42,0,.42.69,0,.68" fill="#fff"/>
        <path d="m82.7,578.42h0c.25-.13-.05-.3-.22-.23v.45h.07v-.19c.14-.04.15.12.18.19h.08s-.03-.23-.1-.22m-.09-.03h-.05v-.15c.16-.04.23.15.05.15" fill="#fff"/>
      </g>
      <g>
        <path d="m22.77,582.7s-.08-.01-.13-.04c-.05-.04-.08-.1-.08-.2v-1.29c0-.33-.04-.63-.13-.88-.08-.25-.2-.47-.35-.64-.15-.17-.33-.31-.55-.4-.21-.09-.46-.14-.72-.14s-.52.05-.74.14c-.22.09-.41.22-.56.39-.16.17-.28.38-.36.63-.09.25-.13.54-.13.86v1.97h1.16v-.94h1.22v.26c0,.13.02.25.06.34.04.09.1.17.17.24.07.06.14.11.22.14.08.03.16.04.23.04.11,0,.22-.02.32-.05.1-.03.2-.08.28-.13.08-.05.15-.12.21-.19.04-.06.08-.11.1-.18-.03.02-.06.03-.09.04-.05.02-.09.03-.13.03Zm-1.36-1.28v.06h-1.22v-.45c0-.37.04-.63.13-.79.09-.17.26-.26.5-.26.21,0,.37.1.46.29.09.18.13.44.13.78v.37Z" fill="#fff"/>
        <path d="m26.22,580.94v.16s-.11-.12-.11-.12l-1.55-1.66c-.08-.08-.26-.21-.44-.21-.06,0-.11.01-.16.04-.18.1-.26.29-.26.61v3.32h1.14v-1.64s0-.16,0-.16l.11.12,1.42,1.54c.07.07.15.13.25.19.09.05.2.08.31.08.04,0,.09,0,.14-.03.05-.02.09-.05.14-.08.04-.03.07-.08.1-.13.03-.05.04-.1.04-.16v-3.59h-1.12v1.73Z" fill="#fff"/>
        <path d="m46.5,580.94v.16s-.11-.12-.11-.12l-1.55-1.66c-.08-.08-.26-.21-.44-.21-.06,0-.11.01-.16.04-.18.1-.26.29-.26.61v3.32h1.14v-1.64s0-.16,0-.16l.11.12,1.42,1.54c.07.07.15.13.25.19.09.05.2.08.31.08.04,0,.09,0,.14-.03.05-.02.09-.05.14-.08.04-.03.07-.08.1-.13.03-.05.04-.1.04-.16v-3.59h-1.12v1.73Z" fill="#fff"/>
        <path d="m30.69,580.05c0,.37-.05.64-.15.82-.11.19-.29.29-.53.29s-.42-.1-.53-.29c-.1-.18-.15-.45-.15-.82v-.83h-1.16v.75c0,.25.03.48.09.69.06.21.14.4.25.56.11.16.24.3.39.41.15.11.32.19.51.24h.05v1.21h1.18v-1.2h.05c.19-.06.35-.14.5-.25.14-.11.27-.25.37-.41.1-.16.18-.35.23-.56.05-.21.08-.45.08-.7v-.75h-1.16v.83Z" fill="#fff"/>
        <polygon points="32.59 580.12 33.69 580.12 33.76 580.12 33.76 580.19 33.76 583.09 34.94 583.09 34.94 580.19 34.94 580.12 35.01 580.12 36.17 580.12 36.17 579.22 32.58 579.22 32.59 580.12" fill="#fff"/>
        <polygon points="39.24 580.79 39.24 580.86 39.17 580.86 38.18 580.86 38.11 580.86 38.11 580.79 38.11 579.21 36.94 579.21 36.94 583.09 38.11 583.09 38.11 581.76 38.11 581.7 38.17 581.7 39.17 581.7 39.24 581.7 39.24 581.76 39.24 583.09 40.41 583.09 40.41 579.21 39.24 579.21 39.24 580.79" fill="#fff"/>
        <rect x="41.55" y="579.21" width="1.17" height="3.87" fill="#fff"/>
        <path d="m52.11,581.23s-.07-.09-.12-.11c-.05-.03-.11-.04-.18-.04h-1.55v.68h.88v.06c0,.08-.03.16-.08.22-.05.06-.11.1-.18.14-.07.04-.15.06-.24.08-.08.02-.17.03-.26.03-.56,0-.85-.4-.85-1.18,0-.19.02-.35.07-.49.05-.14.11-.26.19-.35.08-.09.18-.16.28-.2.11-.04.22-.06.33-.06s.22,0,.32.02c.1.02.19.04.27.07.08.03.15.07.2.12.06.06.08.12.08.2,0,.04,0,.09-.03.13.25-.04.44-.1.55-.18.12-.08.18-.21.18-.39,0-.11-.03-.22-.11-.32-.07-.1-.18-.2-.31-.28-.14-.08-.3-.15-.49-.2-.19-.05-.4-.07-.63-.08h-.04c-.26,0-.51.05-.75.14-.23.09-.44.21-.62.38-.18.17-.32.38-.43.63-.11.25-.16.54-.16.88s.05.63.16.88c.11.25.25.47.43.64.18.17.39.3.62.39.23.09.48.13.73.13.29,0,.54-.04.77-.13.22-.08.41-.2.57-.34.15-.14.28-.31.36-.51.08-.19.12-.4.12-.62,0-.06,0-.13-.03-.19-.02-.06-.04-.12-.08-.16Z" fill="#fff"/>
        <path d="m60.79,580.66c-.14-.11-.31-.2-.5-.26-.19-.06-.41-.09-.64-.09s-.44.03-.64.08c-.19.05-.36.14-.5.25-.14.11-.25.26-.32.43-.08.18-.12.4-.12.65s.04.46.12.64c.08.18.19.32.32.44.14.12.31.2.5.26.19.06.41.09.63.09s.45-.03.64-.08c.19-.05.36-.14.5-.26.14-.11.25-.26.32-.44.08-.18.12-.4.12-.65s-.04-.46-.12-.63c-.08-.17-.18-.32-.32-.43Zm-.7,1.46c-.09.12-.23.17-.44.17s-.35-.06-.43-.18c-.08-.11-.12-.25-.12-.4,0-.16.04-.29.12-.4.08-.11.23-.17.43-.17s.35.06.44.17c.08.11.13.24.13.4s-.04.29-.13.4Z" fill="#fff"/>
        <path d="m63.8,580.34c-.16,0-.31.03-.42.1-.12.07-.23.15-.33.23l-.1.09v-.35h-1.07v2.68h1.07v-1.53l.02-.02c.08-.09.18-.16.29-.2.11-.04.21-.06.29-.06.09,0,.18.03.27.07.08.05.13.12.16.2h0s.19-1.14.19-1.14c-.04-.02-.09-.04-.16-.05-.09-.01-.16-.02-.2-.02Z" fill="#fff"/>
        <path d="m70.68,579.54c-.26-.21-.63-.32-1.09-.32h-1.83s0,3.25,0,3.25c0,.09-.03.15-.08.18-.05.03-.09.04-.13.04-.04,0-.09,0-.14-.03-.03-.01-.06-.03-.1-.04.02.06.06.12.1.18.06.07.13.14.21.19.08.06.18.1.28.13.1.03.21.05.33.05.08,0,.16-.01.24-.04.08-.03.16-.08.22-.14.07-.06.12-.14.17-.24.04-.08.06-.17.06-.27v-.62s0-.06,0-.06h.65c.22,0,.43-.03.61-.09.18-.06.34-.14.47-.25.13-.11.23-.24.3-.4.07-.16.11-.35.11-.55,0-.43-.13-.76-.39-.97Zm-.88,1.37c-.11.11-.25.17-.42.17h-.45v-1.07h.49c.17,0,.3.05.4.15.09.1.14.22.14.38s-.05.27-.16.38Z" fill="#fff"/>
        <path d="m73,582.01v-.37h1.52v-.83h-1.53v-.06s0-.58,0-.58v-.06s.06,0,.06,0h1.85s0-.89,0-.89h-3.08s0,3.26,0,3.26c0,.19.07.33.2.44.14.11.32.17.54.17h2.4v-.9h-1.8c-.11,0-.17-.07-.17-.18Z" fill="#fff"/>
        <polygon points="75.57 580.12 76.68 580.12 76.74 580.12 76.74 580.19 76.75 583.09 77.93 583.09 77.93 580.19 77.93 580.12 77.99 580.12 79.15 580.12 79.15 579.22 75.57 579.22 75.57 580.12" fill="#fff"/>
        <path d="m82.87,581.58c-.03-.1-.08-.19-.14-.26-.06-.07-.12-.14-.2-.19-.08-.05-.16-.1-.25-.14-.16-.08-.33-.14-.51-.18-.19-.04-.36-.08-.51-.11-.16-.04-.29-.08-.4-.12-.16-.07-.19-.18-.19-.26s.04-.19.22-.26c.12-.05.27-.07.45-.07.11,0,.22,0,.32.02.1.02.19.04.27.07.08.03.15.07.2.12.06.06.08.12.08.2,0,.04,0,.09-.03.13.25-.04.44-.1.55-.18.12-.08.18-.21.18-.39,0-.11-.04-.22-.11-.32-.08-.1-.18-.2-.32-.28-.14-.08-.31-.15-.5-.2-.19-.05-.41-.07-.64-.07-.18,0-.37.02-.58.07-.21.05-.4.12-.58.23-.18.1-.33.24-.44.4-.11.16-.17.36-.17.59s.05.44.14.6c.09.16.23.29.4.38.16.09.33.15.5.2.18.04.35.08.5.11.16.03.29.06.39.1.16.05.19.15.19.22,0,.08-.03.14-.09.18-.05.04-.1.07-.17.09-.06.02-.13.03-.2.04-.06,0-.12,0-.17,0-.26,0-.5-.04-.73-.11-.23-.07-.44-.15-.65-.25,0,0,0,0,0,0,0,0-.02.02-.02.03v.79s0,.02,0,.02c.06.04.14.08.23.13.09.05.21.09.33.13.13.04.27.07.43.1.16.03.33.04.52.04s.4-.02.6-.07c.21-.04.4-.12.57-.22.17-.1.31-.23.42-.39.11-.16.16-.35.16-.58,0-.13-.02-.25-.05-.35Z" fill="#fff"/>
        <path d="m57.52,579.81l.16-.74c-.98-.44-2.05.27-1.87,1.44h-.34v.67h.34v1.46c-.02.34-.3-.02-.36.12.16.64,1.37.85,1.38-.15,0,0,0-1.43,0-1.43h.76v-.67h-.76v-.26c.01-.44.37-.62.7-.45Z" fill="#fff"/>
      </g>
    </g>
  </g>
  <g id="g" data-name="rect">
    <rect width="160" height="600" fill="none"/>
  </g>
</svg>