<?xml version="1.0" encoding="UTF-8"?>
<svg id="b" data-name="Layer 2" xmlns="http://www.w3.org/2000/svg" width="300" height="250" viewBox="0 0 300 250">
  <g id="c" data-name="bar">
    <rect y="214" width="300" height="36" fill="#dd2834"/>
  </g>
  <g id="d" data-name="logo">
    <path d="m179.22,221.2c8.28-2.53,12.47,3.81,12.47,3.81,0,0-2.63-8.85-12.47-3.81" fill="#fff"/>
    <path d="m191.97,225.98s1.13-2.62,3.78-3.42c-.33-.3-.55-.77-.51-1.34-3.03,1.54-3.27,4.75-3.27,4.75" fill="#fff"/>
    <path d="m182.35,229.78c.73.01,1.45.08,2.17.08,0-.61.02-1.13.01-1.74-.72.01-1.47-.07-2.2-.09,0-.34.02-.68.02-1.02.61.02,1.98.12,2.3.11,0-.63.02-1.88.02-1.88-1.97-.06-4.23-.3-4.95-.39l-.12,7.7c1.73.14,3.56.27,5.1.26,0,0,0-1.87.01-1.85-.78.01-1.56-.05-2.34-.07,0-.37,0-.74,0-1.11" fill="#fff"/>
    <path d="m190.81,225.18c-1.84.12-3.62.15-5.48.06l-.03,2.01c.73.04,1.38.04,1.38.04v5.58c.84.04,1.89.06,2.77-.04l-.03-5.53s1.23-.05,1.42-.07c0-.74-.02-1.32-.03-2.05" fill="#fff"/>
    <path d="m222.48,226.35c.47.02,1,.12,1.48.16,0,1.94-.05,3.41-.05,5.36,1.31.16,2.24.31,2.6.37,0-1.94.08-3.48.08-5.42,0,0,1.39.21,1.41.23,0-.8,0-1.6,0-2.4-1.84-.34-3.68-.55-5.51-.65,0,.8,0,1.54,0,2.34" fill="#fff"/>
    <path d="m176.32,224.05l-3.3-.6-.02,8.08c.84.17,1.62.31,2.44.4v-2.33c1.78.29,3.72.19,3.77-2.65.02-2.07-1.36-2.67-2.89-2.89m-.61,3.72c-.08-.01-.16-.02-.25-.02,0-.53.01-1.06.02-1.59,1.17-.19,1.48,1.76.23,1.61" fill="#fff"/>
    <path d="m204.62,223.87c-.44,1.16-.89,2.57-1.34,3.72-.43-1.07-.85-2.33-1.28-3.4-.8.11-2.23.36-2.38.36-.28,2.5-.59,5.28-.86,7.78.63-.11,2.17-.36,2.64-.42.07-.94.14-1.93.21-2.87.36.89.72,1.78,1.07,2.67.2-.03.91-.14,1.15-.18.37-.96.74-1.86,1.11-2.82.06.92.09,1.75.15,2.67.92-.1,1.66-.16,2.59-.21-.24-2.45-.45-5.09-.69-7.54-.79.07-1.58.14-2.37.22" fill="#fff"/>
    <path d="m221.98,226.63c-.08-3.67-3.75-3-6.2-3.2-.03,2.59-.05,4.97-.08,7.56.83.02,1.73.08,2.46.15.01-.73.02-1.27.03-2,.47.76.86,1.39,1.33,2.17,1.02.09,2.06.23,3.08.37-.64-.95-1.21-1.76-1.85-2.69.71-.32,1.21-1,1.23-2.35m-3.52.69c-.08,0-.16-.01-.25-.02,0-.52.02-1.04.02-1.56,1.19-.22,1.46,1.71.22,1.58" fill="#fff"/>
    <path d="m210.28,223.43c-.68,2.51-1.47,5.2-2.15,7.73.75-.01,1.52-.06,2.27-.07.07-.27.15-.57.22-.84l1.15-.03s1.01-.03,1.01-.03c.03.1.12.36.25.8.75.02,1.5-.01,2.26.02-.81-2.67-1.64-5.23-2.38-7.64-.98,0-1.78.02-2.62.05m.82,5.05c.17-.64.35-1.32.52-1.97.2.65.39,1.29.59,1.94-1.13.04-1.13.03-1.11.03" fill="#fff"/>
    <path d="m227.43,231.53c-.53,0-.53.84,0,.83.53.01.53-.84,0-.83m0,.76c-.43,0-.43-.71,0-.7.43,0,.43.71,0,.7" fill="#fff"/>
    <path d="m227.51,231.96h0c.25-.13-.05-.31-.22-.23v.46h.07v-.2c.14-.04.15.12.18.2h.08s-.03-.24-.11-.22m-.1-.03h-.05v-.16c.16-.05.24.16.05.16" fill="#fff"/>
    <path d="m196.24,227.66c-.38-.16-1.14-.04-1.22-.55.35-.89,1.7-.25,2.39-.06.24-.65.49-1.29.73-1.94-4.65-2.53-8.7,3.23-3.99,4.54,2.79.4.32,1.75-1.51.31-.3.68-.65,1.51-.95,2.19,5.34,2.96,9.32-3.15,4.55-4.5" fill="#fff"/>
    <path d="m197.88,222.88c-2.54-.05-2.49-3.91.05-3.88,2.54.05,2.49,3.9-.05,3.88Zm.79-3.16c-.87-.78-2.28.1-2.12,1.24.41-.79,1.2-1.26,2.09-1.25.01,0,.02.01.03.01Z" fill="#fff"/>
    <g>
      <path d="m227.64,235.43c-.45,0-.45.7,0,.69.44,0,.44-.7,0-.69m0,.64c-.36,0-.36-.59,0-.58.36,0,.36.59,0,.58" fill="#fff"/>
      <path d="m227.7,235.79h0c.21-.11-.04-.26-.19-.2v.39h.06v-.16c.12-.03.13.1.15.16h.06s-.02-.2-.09-.19m-.08-.02h-.04v-.13c.14-.04.2.13.04.13" fill="#fff"/>
    </g>
    <g>
      <path d="m176.28,239.46s-.07-.01-.11-.04c-.05-.03-.07-.09-.07-.17v-1.11c0-.28-.04-.54-.11-.76-.07-.22-.17-.4-.3-.55-.13-.15-.29-.26-.47-.34-.18-.08-.39-.12-.62-.12s-.44.04-.63.12c-.19.08-.35.19-.48.33-.13.15-.24.33-.31.54-.07.21-.11.46-.11.73v1.69h.99v-.8h1.05v.23c0,.11.02.21.06.29.04.08.08.15.14.2.06.05.12.09.19.12.07.03.14.04.2.04.1,0,.19-.01.28-.04.09-.03.17-.07.24-.11.07-.05.13-.1.18-.16.04-.05.07-.1.09-.15-.03.01-.06.03-.08.04-.04.02-.08.02-.12.02Zm-1.17-1.1v.05h-1.05v-.38c0-.32.04-.54.11-.68.08-.15.22-.23.43-.23.18,0,.32.08.4.25.07.15.11.38.11.67v.31Z" fill="#fff"/>
      <path d="m179.24,237.95v.14s-.09-.1-.09-.1l-1.33-1.43c-.06-.07-.23-.18-.38-.18-.05,0-.09.01-.14.03-.16.08-.23.25-.23.53v2.85h.98v-1.41s0-.14,0-.14l.09.1,1.22,1.32c.06.06.13.11.21.16.08.04.17.07.27.07.04,0,.08,0,.12-.02.04-.02.08-.04.12-.07.03-.03.06-.07.09-.11.02-.04.03-.09.03-.14v-3.08h-.96v1.48Z" fill="#fff"/>
      <path d="m196.64,237.95v.14s-.09-.1-.09-.1l-1.33-1.43c-.06-.07-.23-.18-.38-.18-.05,0-.09.01-.14.03-.16.08-.23.25-.23.53v2.85h.98v-1.41s0-.14,0-.14l.09.1,1.22,1.32c.06.06.13.11.21.16.08.04.17.07.27.07.04,0,.08,0,.12-.02.04-.02.08-.04.12-.07.03-.03.06-.07.09-.11.02-.04.03-.09.03-.14v-3.08h-.96v1.48Z" fill="#fff"/>
      <path d="m183.07,237.18c0,.32-.04.55-.13.71-.09.16-.25.25-.46.25s-.36-.08-.46-.25c-.09-.15-.13-.39-.13-.71v-.71h-.99v.64c0,.21.03.41.08.6.05.18.12.34.21.48.09.14.2.26.34.35.13.09.28.16.44.21h.04v1.04h1.01v-1.03h.04c.16-.05.3-.12.43-.22.12-.09.23-.21.32-.35.09-.14.15-.3.2-.48.05-.18.07-.38.07-.6v-.64h-.99v.71Z" fill="#fff"/>
      <polygon points="184.7 237.25 185.65 237.25 185.71 237.25 185.71 237.3 185.71 239.8 186.72 239.8 186.72 237.3 186.72 237.25 186.78 237.25 187.77 237.25 187.77 236.47 184.7 236.47 184.7 237.25" fill="#fff"/>
      <polygon points="190.41 237.82 190.41 237.88 190.35 237.88 189.5 237.88 189.45 237.88 189.45 237.82 189.45 236.47 188.43 236.47 188.43 239.79 189.44 239.79 189.44 238.66 189.44 238.6 189.5 238.6 190.35 238.6 190.41 238.6 190.41 238.66 190.41 239.79 191.42 239.79 191.42 236.47 190.41 236.47 190.41 237.82" fill="#fff"/>
      <rect x="192.4" y="236.47" width="1" height="3.32" fill="#fff"/>
      <path d="m201.45,238.19s-.06-.07-.11-.1c-.04-.02-.09-.04-.16-.04h-1.33v.59h.76v.05c0,.07-.02.13-.07.19-.04.05-.09.09-.15.12-.06.03-.13.06-.2.07-.07.02-.15.02-.22.02-.48,0-.73-.34-.73-1.01,0-.16.02-.3.06-.42.04-.12.1-.22.17-.3.07-.08.15-.14.24-.17.09-.04.19-.06.28-.06s.19,0,.27.02c.09.01.16.03.23.06.07.03.13.06.17.11.05.05.07.1.07.17,0,.04,0,.07-.02.11.21-.03.37-.08.48-.15.1-.07.15-.18.15-.34,0-.1-.03-.19-.09-.27-.06-.09-.15-.17-.27-.24-.12-.07-.26-.13-.42-.17-.16-.04-.35-.06-.54-.07h-.04c-.22,0-.44.04-.64.12-.2.07-.38.18-.53.33-.15.14-.28.33-.37.54-.09.21-.14.47-.14.75s.05.54.14.76c.09.22.22.4.37.55.15.15.33.26.53.33.2.08.41.11.63.11.25,0,.47-.04.66-.11.19-.07.36-.17.49-.3.13-.12.24-.27.31-.43.07-.17.11-.34.11-.53,0-.05,0-.11-.02-.16-.01-.05-.04-.1-.06-.14Z" fill="#fff"/>
      <path d="m208.9,237.71c-.12-.1-.26-.17-.43-.22-.17-.05-.35-.07-.55-.07s-.38.02-.55.07c-.16.05-.31.12-.43.21-.12.1-.21.22-.28.37-.07.15-.1.34-.1.56s.03.39.1.55c.07.15.16.28.28.38.12.1.26.18.43.22.17.05.35.08.54.08s.38-.02.55-.07c.16-.05.31-.12.43-.22.12-.1.21-.22.28-.38.07-.15.1-.34.1-.56s-.03-.39-.1-.54c-.07-.15-.16-.27-.28-.37Zm-.6,1.26c-.07.1-.2.15-.38.15s-.3-.05-.37-.16c-.07-.1-.1-.21-.1-.34,0-.14.03-.25.1-.34.07-.1.19-.15.37-.15s.3.05.38.15c.07.09.11.21.11.34s-.04.25-.11.35Z" fill="#fff"/>
      <path d="m211.48,237.43c-.14,0-.26.03-.36.09-.11.06-.2.13-.28.19l-.09.07v-.3h-.92v2.3h.92v-1.33c.08-.08.17-.14.26-.17.09-.04.18-.06.25-.06.08,0,.16.02.23.06.07.04.12.1.13.17h0s.17-.98.17-.98c-.03-.02-.08-.03-.13-.04-.07-.01-.13-.02-.17-.02Z" fill="#fff"/>
      <path d="m217.39,236.74c-.22-.18-.54-.28-.93-.28h-1.57s0,2.79,0,2.79c0,.07-.03.13-.07.16-.04.03-.08.04-.11.04-.04,0-.08,0-.12-.02-.03,0-.05-.02-.08-.04.02.05.05.1.09.15.05.06.11.12.18.16.07.05.15.09.24.11.09.03.18.04.28.04.06,0,.13-.01.2-.04.07-.03.13-.06.19-.12.06-.05.11-.12.14-.2.03-.07.05-.14.05-.23v-.53s0-.05,0-.05h.56c.19,0,.36-.03.52-.08.16-.05.29-.12.4-.22.11-.09.2-.21.26-.35.06-.14.09-.3.09-.47,0-.37-.11-.65-.33-.83Zm-.76,1.17c-.09.09-.21.14-.36.14h-.38v-.92h.42c.15,0,.26.04.34.12.08.08.12.19.12.32s-.05.24-.14.33Z" fill="#fff"/>
      <path d="m219.37,238.87v-.32h1.3v-.71h-1.31v-.06s0-.49,0-.49v-.05s.05,0,.05,0h1.59s0-.76,0-.76h-2.64s0,2.8,0,2.8c0,.16.06.28.17.38.12.1.28.14.46.14h2.06v-.77h-1.54c-.09,0-.15-.06-.15-.15Z" fill="#fff"/>
      <polygon points="221.58 237.25 222.53 237.25 222.59 237.25 222.59 237.3 222.59 239.8 223.6 239.8 223.6 237.3 223.6 237.25 223.66 237.25 224.65 237.25 224.65 236.47 221.58 236.47 221.58 237.25" fill="#fff"/>
      <path d="m227.85,238.5c-.03-.08-.07-.16-.12-.22-.05-.06-.11-.12-.17-.16-.07-.05-.14-.09-.21-.12-.14-.07-.28-.12-.44-.15-.16-.03-.3-.07-.44-.1-.14-.03-.25-.07-.34-.11-.13-.06-.16-.16-.16-.23s.03-.16.19-.22c.11-.04.24-.06.38-.06.1,0,.19,0,.27.02.09.01.16.03.23.06.07.03.13.06.17.11.05.05.07.1.07.17,0,.03,0,.07-.02.11.21-.03.37-.08.47-.15.1-.07.15-.18.15-.34,0-.1-.03-.19-.09-.27-.06-.09-.16-.17-.27-.24-.12-.07-.26-.13-.43-.17-.17-.04-.35-.06-.55-.06-.15,0-.32.02-.5.06-.18.04-.35.1-.5.19-.15.09-.28.2-.38.34-.1.14-.15.3-.15.5s.04.38.12.51c.08.14.2.25.34.33.14.08.28.13.43.17.15.04.3.07.43.09.13.03.25.06.33.09.14.05.16.13.16.19,0,.07-.03.12-.07.16-.04.03-.09.06-.14.08-.05.02-.11.03-.17.03-.06,0-.1,0-.14,0-.22,0-.43-.03-.63-.09-.19-.06-.38-.13-.56-.22,0,0,0,0,0,0,0,0-.01.01-.01.02v.68s0,.01,0,.02c.05.03.12.07.2.11.08.04.18.08.29.11.11.03.23.06.37.08.14.02.29.03.45.03s.34-.02.52-.06c.18-.04.34-.1.49-.18.14-.08.27-.2.36-.33.09-.14.14-.3.14-.5,0-.11-.01-.22-.04-.3Z" fill="#fff"/>
      <path d="m206.09,236.98l.13-.63c-.84-.38-1.76.23-1.61,1.24h-.29v.57h.29v1.25c-.02.29-.25-.01-.31.1.14.55,1.17.73,1.18-.13,0,0,0-1.22,0-1.22h.65v-.57h-.65v-.22c.01-.38.32-.53.6-.38Z" fill="#fff"/>
    </g>
  </g>
  <g id="e" data-name="cta">
    <g id="f" data-name="cta-bg">
      <rect x="21" y="138" width="77" height="20" fill="#dd2834"/>
    </g>
    <g id="g" data-name="cta-txt">
      <path d="m31.56,150.5l1.26-1.06c.36.53.98.84,1.52.84s.89-.25.89-.61-.28-.63-1.02-.88l-.52-.18c-1.2-.4-1.85-1.12-1.85-2.12,0-1.43,1.07-2.26,2.53-2.26.9,0,1.67.27,2.37,1.01l-1.07,1.14c-.34-.41-.81-.61-1.27-.61s-.89.18-.89.56c0,.4.35.57,1.14.85l.52.19c1.06.38,1.76,1.08,1.75,2.19,0,1.33-1.1,2.26-2.62,2.26-1.17,0-2.14-.49-2.72-1.31Z" fill="#fff"/>
      <path d="m38.04,144.36h1.64v2.87h2.95v-2.87h1.64v7.33h-1.64v-2.9h-2.95v2.9h-1.64v-7.33Z" fill="#fff"/>
      <path d="m45.42,148.02c0-2.09,1.69-3.79,3.79-3.79s3.79,1.7,3.79,3.79-1.7,3.79-3.79,3.79-3.79-1.7-3.79-3.79Zm5.92,0c0-1.19-.94-2.2-2.13-2.2s-2.14,1.01-2.14,2.2.94,2.2,2.14,2.2,2.13-1.01,2.13-2.2Z" fill="#fff"/>
      <path d="m56.63,149.37h-.85v2.32h-1.64v-7.33h2.49c1.48,0,2.58,1.09,2.58,2.51s-1.1,2.5-2.58,2.5Zm-.02-3.46h-.83v1.92h.83c.59,0,1.01-.42,1.01-.96s-.42-.96-1.01-.96Z" fill="#fff"/>
      <path d="m67.52,151.69l-3.57-4.54v4.54h-1.64v-7.33h1.42l3.56,4.53v-4.53h1.65v7.33h-1.42Z" fill="#fff"/>
      <path d="m70.08,148.02c0-2.09,1.69-3.79,3.79-3.79s3.79,1.7,3.79,3.79-1.7,3.79-3.79,3.79-3.79-1.7-3.79-3.79Zm5.92,0c0-1.19-.94-2.2-2.13-2.2s-2.14,1.01-2.14,2.2.94,2.2,2.14,2.2,2.13-1.01,2.13-2.2Z" fill="#fff"/>
      <path d="m82.93,148.11l-1.56,3.58h-1.56l-1.69-7.33h1.76l1,4.65,2.06-4.77,2.07,4.77,1-4.65h1.76l-1.7,7.33h-1.56l-1.56-3.58Z" fill="#fff"/>
    </g>
  </g>
  <g id="h" data-name="rect">
    <rect width="300" height="250" fill="none"/>
  </g>
</svg>