<svg data-name="Layer 2" xmlns="http://www.w3.org/2000/svg" width="300" height="600" viewBox="0 0 300 600"><g data-name="Button"><path fill="#dd2834" d="M37 206h109v29H37z"/><g data-name="SHOP NOW" fill="#fff"><path d="M51.45 223.69l1.79-1.51c.51.75 1.39 1.18 2.15 1.18s1.26-.35 1.26-.86-.4-.89-1.45-1.24l-.73-.25c-1.7-.57-2.62-1.58-2.62-3 0-2.02 1.52-3.2 3.59-3.2 1.27 0 2.37.38 3.35 1.43l-1.52 1.61c-.48-.58-1.14-.86-1.8-.86s-1.26.25-1.26.79c0 .57.5.8 1.61 1.2l.73.26c1.51.54 2.49 1.54 2.47 3.1 0 1.89-1.55 3.2-3.72 3.2-1.65 0-3.03-.69-3.85-1.86zM60.62 214.99h2.33v4.06h4.19v-4.06h2.33v10.38h-2.33v-4.11h-4.19v4.11h-2.33v-10.38zM71.07 220.18c0-2.95 2.4-5.36 5.37-5.36s5.37 2.41 5.37 5.36-2.41 5.36-5.37 5.36-5.37-2.41-5.37-5.36zm8.38 0c0-1.68-1.33-3.11-3.01-3.11s-3.03 1.43-3.03 3.11 1.33 3.11 3.03 3.11 3.01-1.43 3.01-3.11zM86.95 222.08h-1.2v3.29h-2.33v-10.38h3.53c2.09 0 3.66 1.55 3.66 3.55s-1.57 3.54-3.66 3.54zm-.03-4.9h-1.17v2.72h1.17c.83 0 1.43-.6 1.43-1.36s-.6-1.36-1.43-1.36zM102.37 225.37l-5.06-6.42v6.42h-2.33v-10.38h2l5.05 6.42v-6.42h2.34v10.38h-2zM105.99 220.18c0-2.95 2.4-5.36 5.37-5.36s5.37 2.41 5.37 5.36-2.41 5.36-5.37 5.36-5.37-2.41-5.37-5.36zm8.38 0c0-1.68-1.33-3.11-3.01-3.11s-3.03 1.43-3.03 3.11 1.33 3.11 3.03 3.11 3.01-1.43 3.01-3.11zM124.18 220.3l-2.21 5.07h-2.21l-2.4-10.38h2.49l1.42 6.58 2.91-6.75 2.93 6.75 1.42-6.58h2.49l-2.41 10.38h-2.21l-2.21-5.07z"/></g></g><g data-name="footer"><path fill="#dd2834" d="M0 525h300v75H0z"/><g data-name="logo" fill="#fff"><path d="M49.67 539.49c16.88-5.16 25.41 7.77 25.41 7.77s-5.35-18.04-25.41-7.77M75.65 549.23s2.3-5.34 7.7-6.96c-.67-.62-1.12-1.57-1.04-2.72-6.18 3.13-6.66 9.69-6.66 9.69M56.05 556.97c1.48.03 2.95.17 4.42.16 0-1.24.04-2.31.03-3.55-1.47.03-3-.15-4.48-.19 0-.69.04-1.39.03-2.08 1.24.04 4.04.25 4.68.22-.01-1.28.03-3.83.03-3.83-4.01-.12-8.61-.61-10.1-.79l-.25 15.69c3.53.29 7.25.55 10.38.53 0 0 0-3.81.02-3.76-1.59.02-3.18-.11-4.77-.14 0-.75-.01-1.5-.02-2.26M73.28 547.6c-3.75.24-7.38.31-11.17.13l-.06 4.09c1.48.08 2.81.08 2.81.08l-.02 11.37c1.73.09 3.87.12 5.66-.08l-.06-11.27s2.51-.11 2.9-.15c-.02-1.5-.04-2.69-.06-4.18M137.84 549.99c.96.05 2.04.24 3.01.33 0 3.96-.1 6.96-.1 10.93 2.67.32 4.56.63 5.3.76 0-3.96.16-7.09.16-11.05 0-.01 2.83.44 2.87.48v-4.88c-3.74-.7-7.49-1.12-11.23-1.32V550M43.76 545.3l-6.72-1.23-.04 16.47c1.72.34 3.3.62 4.97.81l-.02-4.75c3.66.59 7.6.38 7.71-5.4.03-4.21-2.78-5.44-5.9-5.89m-1.24 7.58c-.17-.02-.33-.03-.5-.05.02-1.08.02-2.15.03-3.23 2.38-.38 3.01 3.59.47 3.28M101.43 544.93c-.9 2.36-1.81 5.23-2.72 7.59-.87-2.18-1.74-4.75-2.61-6.93-1.64.23-4.55.74-4.84.74-.56 5.1-1.2 10.76-1.76 15.86 1.29-.22 4.43-.73 5.38-.85.15-1.91.29-3.94.43-5.84.73 1.82 1.46 3.64 2.18 5.44.41-.05 1.86-.28 2.34-.36.75-1.96 1.5-3.79 2.26-5.75.12 1.87.19 3.57.31 5.44 1.87-.21 3.38-.32 5.27-.43-.49-5-.91-10.36-1.4-15.36-1.61.14-3.22.29-4.84.44M136.82 550.55c-.16-7.47-7.65-6.12-12.63-6.52-.07 5.28-.09 10.12-.17 15.41 1.68.05 3.53.17 5 .3.02-1.49.04-2.59.06-4.08.96 1.56 1.75 2.84 2.71 4.41 2.07.19 4.19.46 6.27.76-1.3-1.94-2.47-3.59-3.77-5.48 1.44-.64 2.47-2.04 2.51-4.8m-7.18 1.41c-.17 0-.33-.02-.5-.04.02-1.05.03-2.12.05-3.17 2.42-.45 2.98 3.48.46 3.21M112.96 544.03c-1.38 5.12-3 10.61-4.38 15.76 1.53-.03 3.09-.13 4.62-.14.14-.55.3-1.17.45-1.71l2.33-.06 2.07-.06c.05.2.24.74.51 1.63 1.53.04 3.07-.03 4.6.05-1.66-5.43-3.34-10.65-4.85-15.58-2 0-3.63.04-5.34.11m1.67 10.29c.35-1.31.71-2.7 1.05-4.01.4 1.31.8 2.63 1.2 3.95-2.3.09-2.3.05-2.26.05M147.93 560.54c-1.09-.02-1.09 1.71 0 1.69 1.07.02 1.08-1.7 0-1.69m0 1.56c-.88.02-.88-1.44 0-1.42.87-.02.87 1.44 0 1.42"/><path d="M148.07 561.41c.52-.27-.1-.63-.46-.48v.94h.15v-.4c.29-.08.31.25.37.4h.16c-.05-.06-.06-.48-.22-.46m-.2-.06h-.11v-.32c.33-.09.49.32.11.32M84.36 552.65c-.77-.33-2.31-.09-2.5-1.11.71-1.82 3.47-.52 4.88-.12.5-1.32 1-2.63 1.5-3.95-9.48-5.15-17.73 6.58-8.14 9.26 5.68.81.65 3.57-3.07.64-.61 1.38-1.33 3.08-1.94 4.46 10.88 6.03 18.99-6.41 9.28-9.16M87.7 542.92c-5.17-.1-5.07-7.97.11-7.92 5.17.09 5.07 7.96-.11 7.92zm1.6-6.43c-1.78-1.59-4.65.21-4.32 2.52.83-1.62 2.45-2.57 4.26-2.55.02 0 .04.02.06.02zM148.34 568.48c-.91-.02-.91 1.43 0 1.42.9.02.91-1.43 0-1.42m0 1.31c-.74.01-.74-1.21 0-1.19.73-.02.73 1.21 0 1.19"/><path d="M148.46 569.21c.43-.23-.09-.53-.38-.4v.79h.13v-.34c.24-.07.26.21.31.34h.13s-.05-.4-.18-.38m-.17-.05h-.09v-.27c.28-.08.41.27.09.27"/><g><path d="M43.68 576.68c-.07 0-.14-.03-.22-.08-.1-.06-.14-.18-.14-.34V574c0-.58-.07-1.1-.22-1.54-.15-.44-.35-.82-.62-1.12-.26-.3-.58-.54-.95-.69-.37-.16-.8-.24-1.26-.24s-.91.08-1.29.24c-.38.16-.71.38-.98.68-.27.3-.49.67-.63 1.1-.15.44-.22.94-.22 1.5v3.45h2.02v-1.64h2.14v.46c0 .23.04.43.11.59.08.17.17.3.29.41.12.11.24.19.38.24.14.05.28.08.41.08.2 0 .39-.03.56-.08.18-.06.34-.13.49-.23.14-.1.26-.21.36-.33.07-.1.13-.2.18-.31-.06.03-.11.06-.17.07-.08.03-.16.05-.23.05zm-2.38-2.24v.11h-2.14v-.78c0-.64.07-1.09.22-1.38.16-.3.46-.46.88-.46.37 0 .64.17.81.51.15.31.23.77.23 1.36v.64zM49.72 573.62v.28l-.19-.21-2.71-2.9c-.13-.14-.46-.37-.78-.37-.1 0-.19.02-.28.07-.32.17-.46.5-.46 1.07v5.81h1.99v-2.87l.01-.28.19.21 2.49 2.68c.12.12.26.23.43.33.17.09.35.14.54.14.08 0 .16-.02.25-.05.09-.03.16-.08.24-.14.07-.06.13-.13.17-.22.04-.08.07-.18.07-.28v-6.28h-1.96v3.02zM85.18 573.62v.28l-.19-.21-2.71-2.9c-.13-.14-.46-.37-.78-.37-.1 0-.19.02-.28.07-.32.17-.46.5-.46 1.07v5.81h1.99v-2.87l.01-.28.19.21 2.49 2.68c.12.12.26.23.43.33.17.09.35.14.54.14.08 0 .16-.02.25-.05.09-.03.16-.08.24-.14.07-.06.13-.13.17-.22.04-.08.07-.18.07-.28v-6.28h-1.96v3.02zM57.53 572.05c0 .65-.09 1.12-.27 1.44-.19.33-.5.5-.93.5s-.74-.17-.93-.5c-.18-.32-.27-.79-.27-1.44v-1.44h-2.02v1.31c0 .43.05.84.15 1.21.1.37.25.7.44.99.19.28.42.52.68.71.27.19.57.33.89.42l.08.02v2.1h2.06v-2.1l.08-.02c.32-.09.62-.23.87-.42.25-.19.47-.43.64-.71.18-.28.31-.62.4-.99.09-.37.14-.78.14-1.22v-1.31h-2.02v1.44zM60.85 572.19h2.05v.11l.01 5.08h2.06v-5.19h2.13v-1.58h-6.26l.01 1.58M72.47 573.36v.11H70.51V570.6h-2.06v6.77h2.05v-2.43H72.47v2.43h2.06v-6.77h-2.06v2.76M76.52 570.6h2.04v6.77h-2.04zM94.98 574.11c-.06-.08-.13-.15-.22-.2-.09-.05-.19-.08-.32-.08h-2.7v1.19h1.54v.11c0 .15-.05.27-.13.38-.08.1-.19.18-.31.25-.12.06-.26.11-.41.14-.15.03-.3.05-.45.05-.99 0-1.48-.7-1.48-2.07 0-.33.04-.62.12-.86.08-.25.2-.45.34-.61.14-.16.31-.28.5-.35.19-.07.38-.11.58-.11s.38.01.55.04c.17.03.33.07.46.12.14.06.26.13.34.22.1.1.14.21.14.34 0 .07-.02.15-.05.23.44-.07.76-.17.97-.31.21-.14.31-.36.31-.69 0-.2-.06-.38-.19-.55-.13-.18-.31-.34-.55-.48-.24-.14-.53-.26-.86-.34-.33-.08-.71-.13-1.11-.14h-.08c-.45 0-.89.09-1.3.24-.41.15-.78.38-1.09.67-.31.29-.57.66-.75 1.1-.19.44-.28.95-.28 1.53s.1 1.1.29 1.54c.19.44.44.82.76 1.12.31.3.68.53 1.09.68.41.15.84.23 1.28.23.5 0 .95-.07 1.34-.22.39-.15.73-.35 1-.6s.48-.55.62-.88c.14-.34.22-.7.22-1.08 0-.11-.02-.22-.04-.32-.03-.1-.07-.2-.13-.29zM110.16 573.13c-.24-.2-.53-.35-.87-.45-.34-.1-.72-.15-1.12-.15s-.77.05-1.11.14c-.33.09-.62.24-.87.43-.24.19-.43.45-.57.76-.14.31-.21.69-.21 1.13s.07.8.21 1.11c.14.31.33.57.57.77.24.2.53.36.87.46.34.1.71.15 1.11.15s.78-.05 1.12-.15c.33-.1.62-.25.87-.45.24-.2.43-.46.56-.77.13-.31.2-.69.2-1.13s-.07-.8-.2-1.11c-.13-.31-.32-.56-.56-.76zm-1.22 2.56c-.15.2-.41.3-.77.3s-.6-.11-.75-.32c-.14-.2-.21-.43-.21-.69 0-.28.07-.51.21-.7.15-.2.4-.3.75-.3s.61.1.77.3c.15.19.22.42.22.7s-.07.51-.22.71zM115.41 572.56c-.29 0-.53.06-.74.18-.22.13-.41.26-.57.39l-.18.15v-.6h-1.88v4.69h1.88v-2.68l.03-.03c.14-.16.31-.28.5-.35.19-.07.36-.11.51-.11.16 0 .32.04.46.13s.24.2.27.34.34-1.99.34-1.99c-.06-.04-.15-.07-.27-.08-.15-.02-.27-.03-.36-.03zM127.46 571.16c-.45-.37-1.09-.56-1.9-.56h-3.2v5.69c0 .15-.05.26-.15.32-.08.05-.16.08-.23.08s-.15-.02-.24-.05c-.05-.02-.11-.04-.17-.07.04.11.1.21.18.31.1.13.22.24.37.33.15.1.31.17.49.23s.37.08.58.08c.13 0 .27-.03.42-.08.14-.05.27-.13.39-.24.12-.11.22-.25.29-.41.06-.13.1-.29.11-.47v-1.08-.11h1.13c.39 0 .74-.05 1.06-.15.32-.1.59-.25.82-.44.22-.19.4-.42.53-.7.13-.28.19-.61.19-.97 0-.76-.23-1.33-.67-1.7zm-1.54 2.39c-.18.19-.43.29-.74.29h-.78v-1.87h.86c.3 0 .53.09.69.25.16.17.24.39.24.66s-.09.48-.28.67zM131.5 575.48v-.65h2.66v-1.45h-2.67v-.11l.01-1.01v-.11h3.34v-1.55h-5.39v5.71c0 .33.12.58.36.77.24.2.56.29.95.29h4.19v-1.57h-3.14c-.19 0-.3-.12-.3-.31zM136 572.19h2.05v.11l.01 5.08h2.06v-5.19H142.26v-1.58h-6.27l.01 1.58M148.76 574.73c-.06-.17-.14-.32-.24-.45-.1-.13-.22-.24-.35-.33-.13-.09-.28-.17-.43-.25-.28-.14-.58-.24-.89-.31-.32-.07-.62-.13-.89-.19-.28-.06-.51-.13-.69-.22-.27-.12-.33-.32-.33-.46s.07-.33.38-.45c.22-.08.48-.12.78-.12.19 0 .38.01.55.04.17.03.33.07.46.12.14.06.26.13.34.22.1.1.14.21.14.34 0 .07-.02.15-.05.23.44-.07.76-.17.97-.31.21-.14.31-.36.31-.69 0-.2-.06-.38-.19-.56-.13-.18-.32-.35-.56-.49-.24-.14-.54-.26-.88-.34-.34-.08-.72-.13-1.13-.13-.31 0-.65.04-1.02.12-.36.08-.71.21-1.02.4-.31.18-.57.42-.78.7-.2.28-.3.62-.3 1.03s.08.77.25 1.05c.17.28.4.5.69.66.28.15.57.27.87.34.31.08.6.14.87.19.27.05.5.11.68.17.28.1.34.26.34.39s-.05.24-.15.32c-.08.06-.18.12-.29.15-.11.04-.22.06-.34.07-.11.01-.21.02-.29.02-.45 0-.88-.06-1.28-.18s-.78-.27-1.13-.45l-.01.01c-.01.01-.03.03-.03.05v1.38s0 .03.01.03c.1.07.24.14.4.22.16.08.36.16.58.22.22.07.48.13.76.17.28.05.58.07.91.07s.69-.04 1.06-.12c.36-.08.69-.2.99-.38.29-.17.54-.4.73-.68.19-.28.28-.62.28-1.02 0-.23-.03-.44-.09-.61zM104.43 571.64l.27-1.29c-1.72-.77-3.59.48-3.27 2.52h-.59v1.17h.59v2.56c-.03.59-.52-.03-.63.2.29 1.12 2.39 1.49 2.41-.26v-2.5h1.32v-1.17h-1.32v-.45c.02-.78.65-1.08 1.22-.78z"/></g></g></g><path fill="none" d="M0 0h300v600H0z" data-name="rect"/></svg>