<?xml version="1.0" encoding="UTF-8"?>
<svg id="b" data-name="Layer 2" xmlns="http://www.w3.org/2000/svg" width="320" height="50" viewBox="0 0 320 50">
  <g id="c" data-name="footer">
    <rect x="205" width="115" height="50" fill="#dd2834"/>
    <g id="d" data-name="logo">
      <path d="m220.09,16.8c6.78-2.07,10.21,3.12,10.21,3.12,0,0-2.15-7.25-10.21-3.12" fill="#fff"/>
      <path d="m230.53,20.72s.92-2.15,3.09-2.8c-.27-.25-.45-.63-.42-1.09-2.48,1.26-2.67,3.89-2.67,3.89" fill="#fff"/>
      <path d="m222.66,23.83c.59.01,1.19.07,1.78.06,0-.5.02-.93.01-1.43-.59.01-1.21-.06-1.8-.08,0-.28.02-.56.01-.83.5.02,1.62.1,1.88.09,0-.51.01-1.54.01-1.54-1.61-.05-3.46-.25-4.06-.32l-.1,6.31c1.42.12,2.91.22,4.17.21,0,0,0-1.53,0-1.51-.64.01-1.28-.04-1.91-.06,0-.3,0-.6,0-.91" fill="#fff"/>
      <path d="m229.58,20.06c-1.51.1-2.96.12-4.49.05l-.02,1.64c.59.03,1.13.03,1.13.03v4.57c.69.04,1.55.05,2.27-.03l-.03-4.53s1.01-.04,1.16-.06c0-.6-.02-1.08-.02-1.68" fill="#fff"/>
      <path d="m255.52,21.02c.39.02.82.1,1.21.13,0,1.59-.04,2.8-.04,4.39,1.07.13,1.83.25,2.13.31,0-1.59.06-2.85.06-4.44,0,0,1.14.18,1.15.19,0-.65,0-1.31,0-1.96-1.5-.28-3.01-.45-4.51-.53,0,.65,0,1.26,0,1.91" fill="#fff"/>
      <path d="m217.72,19.14l-2.7-.49-.02,6.62c.69.14,1.32.25,2,.32v-1.91c1.46.24,3.04.15,3.09-2.17.01-1.69-1.12-2.18-2.37-2.37m-.5,3.05c-.07,0-.13-.01-.2-.02,0-.44,0-.87.01-1.3.96-.15,1.21,1.44.19,1.32" fill="#fff"/>
      <path d="m240.89,18.99c-.36.95-.73,2.1-1.09,3.05-.35-.88-.7-1.91-1.05-2.78-.66.09-1.83.3-1.95.3-.23,2.05-.48,4.32-.71,6.37.52-.09,1.78-.29,2.16-.34.06-.77.12-1.58.17-2.35.29.73.59,1.46.88,2.19.16-.02.75-.11.94-.14.3-.79.6-1.52.91-2.31.05.75.08,1.43.13,2.19.75-.08,1.36-.13,2.12-.17-.2-2.01-.37-4.16-.56-6.17-.65.06-1.3.12-1.94.18" fill="#fff"/>
      <path d="m255.11,21.25c-.06-3-3.07-2.46-5.07-2.62-.03,2.12-.04,4.07-.07,6.19.68.02,1.42.07,2.01.12,0-.6.02-1.04.02-1.64.39.63.7,1.14,1.09,1.77.83.08,1.69.18,2.52.3-.52-.78-.99-1.44-1.51-2.2.58-.26.99-.82,1.01-1.93m-2.88.57c-.07,0-.13,0-.2-.02,0-.42.01-.85.02-1.28.97-.18,1.2,1.4.18,1.29" fill="#fff"/>
      <path d="m245.52,18.63c-.55,2.06-1.21,4.26-1.76,6.33.62-.01,1.24-.05,1.85-.05.06-.22.12-.47.18-.69l.94-.02s.83-.03.83-.03c.02.08.1.3.21.65.61.02,1.23-.01,1.85.02-.67-2.18-1.34-4.28-1.95-6.26-.8,0-1.46.02-2.15.04m.67,4.14c.14-.53.28-1.08.42-1.61.16.53.32,1.06.48,1.59-.92.04-.92.02-.91.02" fill="#fff"/>
      <path d="m259.57,25.26c-.44,0-.44.69,0,.68.43,0,.43-.68,0-.68m0,.63c-.35,0-.35-.58,0-.57.35,0,.35.58,0,.57" fill="#fff"/>
      <path d="m259.63,25.61h0c.21-.11-.04-.25-.18-.19v.38h.06v-.16c.12-.03.12.1.15.16h.06s-.02-.19-.09-.18m-.08-.02h-.04v-.13c.13-.04.19.13.04.13" fill="#fff"/>
      <path d="m234.03,22.09c-.31-.13-.93-.04-1-.45.29-.73,1.39-.21,1.96-.05.2-.53.4-1.06.6-1.59-3.81-2.07-7.12,2.64-3.27,3.72,2.28.32.26,1.43-1.23.26-.25.55-.53,1.24-.78,1.79,4.37,2.42,7.63-2.58,3.73-3.68" fill="#fff"/>
      <path d="m235.37,18.18c-2.08-.04-2.04-3.2.04-3.18,2.08.04,2.04,3.2-.04,3.18Zm.64-2.58c-.72-.64-1.87.08-1.73,1.01.33-.65.98-1.03,1.71-1.02,0,0,.02,0,.03,0Z" fill="#fff"/>
      <g>
        <path d="m259.73,28.45c-.37,0-.37.58,0,.57.36,0,.36-.57,0-.57m0,.52c-.3,0-.3-.49,0-.48.29,0,.29.49,0,.48" fill="#fff"/>
        <path d="m259.78,28.74h0c.17-.09-.04-.21-.15-.16v.32h.05v-.13c.1-.03.1.08.12.13h.05s-.02-.16-.07-.15m-.07-.02h-.04v-.11c.11-.03.16.11.04.11" fill="#fff"/>
      </g>
      <g>
        <path d="m217.69,31.75s-.06-.01-.09-.03c-.04-.02-.06-.07-.06-.14v-.91c0-.23-.03-.44-.09-.62-.06-.18-.14-.33-.25-.45-.11-.12-.23-.22-.38-.28-.15-.06-.32-.1-.5-.1s-.36.03-.52.09c-.15.06-.28.15-.39.27-.11.12-.2.27-.25.44-.06.17-.09.38-.09.6v1.39h.81v-.66h.86v.19c0,.09.02.17.05.24.03.07.07.12.12.17.05.04.1.08.15.1.06.02.11.03.16.03.08,0,.16-.01.23-.03.07-.02.14-.05.2-.09.06-.04.11-.08.15-.13.03-.04.05-.08.07-.12-.02.01-.05.02-.07.03-.03.01-.07.02-.09.02Zm-.96-.9v.04h-.86v-.31c0-.26.03-.44.09-.55.06-.12.18-.18.35-.18.15,0,.26.07.32.2.06.12.09.31.09.55v.26Z" fill="#fff"/>
        <path d="m220.11,30.52v.11s-.08-.08-.08-.08l-1.09-1.17c-.05-.06-.18-.15-.31-.15-.04,0-.08,0-.11.03-.13.07-.18.2-.18.43v2.33h.8v-1.15s0-.11,0-.11l.08.08,1,1.08s.1.09.17.13c.07.04.14.05.22.05.03,0,.06,0,.1-.02.03-.01.07-.03.09-.06.03-.02.05-.05.07-.09.02-.03.03-.07.03-.11v-2.53h-.79v1.21Z" fill="#fff"/>
        <path d="m234.36,30.52v.11s-.08-.08-.08-.08l-1.09-1.17c-.05-.06-.18-.15-.31-.15-.04,0-.08,0-.11.03-.13.07-.18.2-.18.43v2.33h.8v-1.15s0-.11,0-.11l.08.08,1,1.08s.1.09.17.13c.07.04.14.05.22.05.03,0,.06,0,.1-.02.03-.01.07-.03.09-.06.03-.02.05-.05.07-.09.02-.03.03-.07.03-.11v-2.53h-.79v1.21Z" fill="#fff"/>
        <path d="m223.25,29.89c0,.26-.04.45-.11.58-.08.13-.2.2-.37.2s-.3-.07-.37-.2c-.07-.13-.11-.32-.11-.58v-.58h-.81v.52c0,.17.02.34.06.49.04.15.1.28.18.4.08.11.17.21.27.29.11.08.23.13.36.17h.03v.85h.83v-.84h.03c.13-.04.25-.1.35-.18.1-.08.19-.17.26-.29.07-.11.13-.25.16-.4.04-.15.06-.31.06-.49v-.52h-.81v.58Z" fill="#fff"/>
        <polygon points="224.58 29.94 225.36 29.94 225.4 29.94 225.4 29.99 225.41 32.03 226.24 32.03 226.24 29.99 226.24 29.94 226.28 29.94 227.1 29.94 227.1 29.31 224.58 29.31 224.58 29.94" fill="#fff"/>
        <polygon points="229.25 30.41 229.25 30.46 229.21 30.46 228.51 30.46 228.46 30.46 228.46 30.41 228.46 29.3 227.64 29.3 227.64 32.02 228.46 32.02 228.46 31.09 228.46 31.05 228.51 31.05 229.21 31.05 229.25 31.05 229.25 31.09 229.25 32.02 230.08 32.02 230.08 29.3 229.25 29.3 229.25 30.41" fill="#fff"/>
        <rect x="230.88" y="29.3" width=".82" height="2.72" fill="#fff"/>
        <path d="m238.29,30.72s-.05-.06-.09-.08c-.03-.02-.08-.03-.13-.03h-1.09v.48h.62v.04c0,.06-.02.11-.05.15-.03.04-.07.07-.13.1-.05.03-.1.05-.17.06-.06.01-.12.02-.18.02-.4,0-.6-.28-.6-.83,0-.13.02-.25.05-.35.03-.1.08-.18.14-.24.06-.06.12-.11.2-.14.07-.03.15-.05.23-.05s.15,0,.22.02c.07.01.13.03.19.05.06.02.1.05.14.09.04.04.06.09.06.14,0,.03,0,.06-.02.09.18-.03.31-.07.39-.12.08-.06.12-.15.12-.28,0-.08-.02-.15-.07-.22-.05-.07-.13-.14-.22-.19-.1-.06-.21-.1-.34-.14-.13-.03-.28-.05-.44-.05h-.03c-.18,0-.36.03-.52.1-.16.06-.31.15-.44.27-.13.12-.23.27-.3.44-.07.18-.11.38-.11.62s.04.44.11.62c.08.18.18.33.3.45.13.12.27.21.44.27.16.06.34.09.52.09.2,0,.38-.03.54-.09.16-.06.29-.14.4-.24.11-.1.19-.22.25-.36.06-.14.09-.28.09-.44,0-.04,0-.09-.02-.13-.01-.04-.03-.08-.05-.12Z" fill="#fff"/>
        <path d="m244.39,30.32c-.1-.08-.21-.14-.35-.18-.14-.04-.29-.06-.45-.06s-.31.02-.45.06c-.13.04-.25.1-.35.17-.1.08-.17.18-.23.3-.05.12-.08.28-.08.45s.03.32.08.45c.05.12.13.23.23.31.1.08.21.14.35.18.14.04.29.06.45.06s.31-.02.45-.06c.13-.04.25-.1.35-.18.1-.08.17-.18.23-.31.05-.12.08-.28.08-.46s-.03-.32-.08-.45c-.05-.12-.13-.22-.23-.3Zm-.49,1.03c-.06.08-.16.12-.31.12s-.24-.04-.3-.13c-.05-.08-.08-.17-.08-.28,0-.11.03-.21.08-.28.06-.08.16-.12.3-.12s.25.04.31.12c.06.08.09.17.09.28s-.03.21-.09.28Z" fill="#fff"/>
        <path d="m246.51,30.09c-.11,0-.21.02-.3.07-.09.05-.16.1-.23.16l-.07.06v-.24h-.75v1.88h.75v-1.07h.01c.06-.08.12-.12.2-.15.08-.03.15-.05.21-.05.07,0,.13.02.19.05.06.03.09.08.11.14h0s.14-.8.14-.8c-.03-.02-.06-.03-.11-.03-.06,0-.11-.01-.14-.01Z" fill="#fff"/>
        <path d="m251.34,29.53c-.18-.15-.44-.23-.76-.23h-1.29s0,2.29,0,2.29c0,.06-.02.1-.06.13-.03.02-.06.03-.09.03-.03,0-.06,0-.1-.02-.02,0-.04-.02-.07-.03.02.04.04.08.07.12.04.05.09.1.15.13.06.04.13.07.2.09.07.02.15.03.23.03.05,0,.11-.01.17-.03.06-.02.11-.05.16-.1.05-.04.09-.1.12-.17.02-.05.04-.12.04-.19v-.43s0-.04,0-.04h.45c.15,0,.3-.02.43-.06.13-.04.24-.1.33-.18.09-.08.16-.17.21-.28.05-.11.08-.24.08-.39,0-.31-.09-.53-.27-.68Zm-.62.96c-.07.08-.17.12-.3.12h-.31v-.75h.34c.12,0,.21.03.28.1.06.07.1.16.1.26s-.04.19-.11.27Z" fill="#fff"/>
        <path d="m252.97,31.27v-.26h1.07v-.58h-1.07v-.05s0-.4,0-.4v-.04s.05,0,.05,0h1.3s0-.62,0-.62h-2.16s0,2.29,0,2.29c0,.13.05.23.14.31.1.08.23.12.38.12h1.68v-.63h-1.26c-.07,0-.12-.05-.12-.13Z" fill="#fff"/>
        <polygon points="254.78 29.94 255.56 29.94 255.6 29.94 255.6 29.99 255.6 32.03 256.43 32.03 256.43 29.99 256.43 29.94 256.48 29.94 257.29 29.94 257.29 29.31 254.77 29.31 254.78 29.94" fill="#fff"/>
        <path d="m259.9,30.96c-.02-.07-.06-.13-.1-.18-.04-.05-.09-.1-.14-.13-.05-.04-.11-.07-.17-.1-.11-.05-.23-.1-.36-.12-.13-.03-.25-.05-.36-.08-.11-.02-.21-.05-.28-.09-.11-.05-.13-.13-.13-.19s.03-.13.15-.18c.09-.03.19-.05.31-.05.08,0,.15,0,.22.02.07.01.13.03.19.05.06.02.1.05.14.09.04.04.06.09.06.14,0,.03,0,.06-.02.09.18-.03.31-.07.39-.12.08-.06.12-.15.12-.28,0-.08-.02-.15-.08-.22-.05-.07-.13-.14-.22-.2-.1-.06-.22-.1-.35-.14-.14-.03-.29-.05-.45-.05-.13,0-.26.02-.41.05-.15.03-.28.09-.41.16-.12.07-.23.17-.31.28-.08.11-.12.25-.12.41s.03.31.1.42c.07.11.16.2.28.27.11.06.23.11.35.14.13.03.24.06.35.08.11.02.2.05.27.07.11.04.13.11.13.15,0,.05-.02.1-.06.13-.03.03-.07.05-.12.06-.04.01-.09.02-.14.03-.05,0-.09,0-.12,0-.18,0-.35-.02-.51-.07-.16-.05-.31-.11-.46-.18,0,0,0,0,0,0,0,0-.01.01-.01.02v.55s0,.01,0,.01c.04.03.1.06.16.09.07.03.14.06.23.09.09.03.19.05.3.07.11.02.23.03.37.03s.28-.02.42-.05c.14-.03.28-.08.4-.15.12-.07.22-.16.29-.27.08-.11.11-.25.11-.41,0-.09-.01-.18-.04-.25Z" fill="#fff"/>
        <path d="m242.09,29.72l.11-.52c-.69-.31-1.44.19-1.31,1.01h-.24v.47h.24v1.03c-.01.24-.21-.01-.25.08.12.45.96.6.97-.11,0,0,0-1,0-1h.53v-.47h-.53v-.18c0-.31.26-.43.49-.31Z" fill="#fff"/>
      </g>
    </g>
  </g>
  <g id="e" data-name="rect">
    <rect width="320" height="50" fill="none"/>
  </g>
</svg>