<?xml version="1.0" encoding="UTF-8"?>
<svg id="b" data-name="Layer 2" xmlns="http://www.w3.org/2000/svg" width="728" height="90" viewBox="0 0 728 90">
  <g id="c" data-name="Button">
    <rect x="346" y="29" width="106" height="28" fill="#dd2834"/>
    <g id="d" data-name="SHOP NOW">
      <path d="m360.65,46.6l1.74-1.46c.5.73,1.36,1.15,2.1,1.15s1.23-.34,1.23-.84-.39-.87-1.42-1.21l-.71-.24c-1.66-.55-2.56-1.54-2.56-2.92,0-1.96,1.49-3.11,3.5-3.11,1.24,0,2.32.37,3.27,1.39l-1.49,1.56c-.47-.57-1.12-.84-1.76-.84s-1.23.24-1.23.77c0,.55.49.78,1.57,1.17l.71.26c1.47.53,2.43,1.49,2.42,3.02,0,1.83-1.52,3.11-3.63,3.11-1.62,0-2.96-.67-3.76-1.81Z" fill="#fff"/>
      <path d="m369.61,38.14h2.27v3.95h4.09v-3.95h2.27v10.1h-2.27v-4h-4.09v4h-2.27v-10.1Z" fill="#fff"/>
      <path d="m379.81,43.19c0-2.87,2.34-5.22,5.25-5.22s5.25,2.35,5.25,5.22-2.36,5.22-5.25,5.22-5.25-2.35-5.25-5.22Zm8.19,0c0-1.64-1.3-3.03-2.95-3.03s-2.96,1.39-2.96,3.03,1.3,3.03,2.96,3.03,2.95-1.39,2.95-3.03Z" fill="#fff"/>
      <path d="m395.32,45.04h-1.17v3.2h-2.27v-10.1h3.45c2.04,0,3.58,1.51,3.58,3.46s-1.53,3.44-3.58,3.44Zm-.03-4.76h-1.14v2.65h1.14c.82,0,1.4-.58,1.4-1.32s-.59-1.32-1.4-1.32Z" fill="#fff"/>
      <path d="m410.39,48.24l-4.95-6.24v6.24h-2.27v-10.1h1.96l4.93,6.24v-6.24h2.29v10.1h-1.96Z" fill="#fff"/>
      <path d="m413.91,43.19c0-2.87,2.34-5.22,5.25-5.22s5.25,2.35,5.25,5.22-2.36,5.22-5.25,5.22-5.25-2.35-5.25-5.22Zm8.19,0c0-1.64-1.3-3.03-2.95-3.03s-2.96,1.39-2.96,3.03,1.3,3.03,2.96,3.03,2.95-1.39,2.95-3.03Z" fill="#fff"/>
      <path d="m431.68,43.3l-2.16,4.93h-2.16l-2.34-10.1h2.43l1.39,6.4,2.84-6.57,2.86,6.57,1.39-6.4h2.43l-2.36,10.1h-2.16l-2.16-4.93Z" fill="#fff"/>
    </g>
  </g>
  <g id="e" data-name="footer">
    <rect x="612" width="116" height="90" fill="#dd2834"/>
    <g id="f" data-name="logo">
      <path d="m643.73,50.74c10.3-3.15,15.5,4.74,15.5,4.74,0,0-3.26-11.01-15.5-4.74" fill="#fff"/>
      <path d="m659.58,56.68s1.4-3.26,4.7-4.25c-.41-.38-.68-.96-.63-1.66-3.77,1.91-4.06,5.91-4.06,5.91" fill="#fff"/>
      <path d="m647.62,61.4c.9.02,1.8.1,2.7.1,0-.76.02-1.41.02-2.17-.9.02-1.83-.09-2.73-.11,0-.42.03-.85.02-1.27.75.03,2.47.15,2.86.13,0-.78.02-2.34.02-2.34-2.45-.08-5.26-.37-6.16-.48l-.15,9.57c2.15.18,4.42.34,6.34.32,0,0,0-2.33.01-2.29-.97.02-1.94-.07-2.91-.09,0-.46,0-.92-.01-1.38" fill="#fff"/>
      <path d="m658.14,55.69c-2.29.15-4.5.19-6.81.08l-.04,2.5c.9.05,1.71.05,1.71.05v6.94c1.05.06,2.35.07,3.45-.05l-.04-6.87s1.53-.07,1.77-.09c-.01-.92-.03-1.64-.04-2.55" fill="#fff"/>
      <path d="m697.52,57.14c.59.03,1.25.15,1.83.2,0,2.41-.06,4.25-.06,6.67,1.63.2,2.78.38,3.23.46,0-2.41.1-4.33.1-6.74,0,0,1.72.27,1.75.29,0-.99,0-1.99,0-2.98-2.28-.42-4.57-.68-6.85-.81,0,.99,0,1.91,0,2.91" fill="#fff"/>
      <path d="m640.12,54.28l-4.1-.75-.02,10.05c1.05.21,2.01.38,3.03.49v-2.9c2.22.36,4.62.23,4.69-3.3.02-2.57-1.7-3.32-3.6-3.59m-.76,4.63c-.1-.01-.2-.02-.31-.03.01-.66.01-1.31.02-1.97,1.45-.23,1.84,2.19.29,2" fill="#fff"/>
      <path d="m675.31,54.06c-.55,1.44-1.1,3.19-1.66,4.63-.53-1.33-1.06-2.9-1.59-4.23-1,.14-2.77.45-2.95.45-.34,3.11-.73,6.56-1.07,9.67.79-.14,2.7-.44,3.28-.52.09-1.16.18-2.4.26-3.56.45,1.11.89,2.22,1.33,3.32.25-.03,1.13-.17,1.43-.22.46-1.2.92-2.31,1.38-3.51.07,1.14.12,2.18.19,3.32,1.14-.13,2.06-.2,3.21-.26-.3-3.05-.55-6.32-.85-9.37-.98.09-1.97.17-2.95.27" fill="#fff"/>
      <path d="m696.9,57.49c-.1-4.56-4.67-3.73-7.7-3.98-.04,3.22-.06,6.18-.1,9.4,1.03.03,2.15.1,3.05.18.01-.91.03-1.58.04-2.49.59.95,1.07,1.73,1.66,2.69,1.26.12,2.56.28,3.83.46-.79-1.18-1.51-2.19-2.3-3.34.88-.39,1.51-1.24,1.53-2.93m-4.38.86c-.1,0-.2-.01-.31-.02.01-.64.02-1.29.03-1.94,1.47-.27,1.82,2.12.28,1.96" fill="#fff"/>
      <path d="m682.34,53.51c-.84,3.12-1.83,6.47-2.67,9.61.94-.02,1.88-.08,2.82-.08.08-.33.18-.71.27-1.04l1.42-.04s1.26-.04,1.26-.04c.03.12.15.45.31.99.93.03,1.87-.02,2.81.03-1.01-3.32-2.04-6.5-2.96-9.5-1.22,0-2.22.02-3.26.07m1.02,6.28c.21-.8.43-1.64.64-2.44.24.8.49,1.61.73,2.41-1.4.05-1.4.03-1.38.03" fill="#fff"/>
      <path d="m703.67,63.58c-.66-.01-.66,1.04,0,1.03.66.01.66-1.04,0-1.03m0,.95c-.54,0-.54-.88,0-.87.53-.01.53.88,0,.87" fill="#fff"/>
      <path d="m703.76,64.11h0c.32-.17-.06-.38-.28-.29v.57h.09v-.24c.17-.05.19.15.22.24h.1s-.04-.29-.13-.28m-.12-.03h-.07v-.2c.2-.06.3.19.07.2" fill="#fff"/>
      <path d="m664.89,58.77c-.47-.2-1.41-.06-1.52-.68.43-1.11,2.12-.31,2.97-.08.3-.8.61-1.61.91-2.41-5.78-3.14-10.81,4.01-4.96,5.65,3.47.49.4,2.18-1.87.39-.37.84-.81,1.88-1.19,2.72,6.64,3.68,11.58-3.91,5.66-5.59" fill="#fff"/>
      <path d="m666.93,52.83c-3.15-.06-3.09-4.86.07-4.83,3.16.06,3.09,4.85-.07,4.83Zm.98-3.92c-1.09-.97-2.84.13-2.63,1.54.51-.99,1.5-1.57,2.6-1.55.01,0,.03.01.04.01Z" fill="#fff"/>
      <g>
        <path d="m703.92,68.42c-.56-.01-.56.87,0,.86.55.01.55-.87,0-.86m0,.8c-.45,0-.45-.74,0-.73.44-.01.44.74,0,.73" fill="#fff"/>
        <path d="m704,68.87h0c.26-.14-.05-.32-.23-.24v.48h.08v-.2c.15-.04.16.13.19.2h.08s-.03-.25-.11-.23m-.1-.03h-.06v-.16c.17-.05.25.16.06.16" fill="#fff"/>
      </g>
      <g>
        <path d="m640.08,73.43s-.09-.02-.14-.05c-.06-.04-.09-.11-.09-.21v-1.38c0-.35-.05-.67-.13-.94-.09-.27-.21-.5-.38-.69-.16-.18-.36-.33-.58-.42-.23-.1-.49-.15-.77-.15s-.55.05-.78.14c-.23.1-.43.23-.6.42-.17.18-.3.41-.39.67-.09.27-.14.57-.14.91v2.11h1.23v-1h1.3v.28c0,.14.02.26.07.36.05.1.11.19.18.25.07.07.15.12.23.15.09.03.17.05.25.05.12,0,.24-.02.34-.05.11-.03.21-.08.3-.14.09-.06.16-.13.22-.2.05-.06.08-.12.11-.19-.03.02-.07.03-.1.05-.05.02-.1.03-.14.03Zm-1.45-1.36v.07h-1.3v-.48c0-.39.04-.67.14-.84.1-.19.28-.28.54-.28.23,0,.39.1.49.31.09.19.14.47.14.83v.39Z" fill="#fff"/>
        <path d="m643.76,71.56v.17s-.12-.13-.12-.13l-1.65-1.77c-.08-.09-.28-.22-.47-.22-.06,0-.12.01-.17.04-.19.1-.28.31-.28.65v3.54h1.22v-1.75s0-.17,0-.17l.12.13,1.52,1.64c.07.08.16.14.26.2.1.06.21.08.33.08.05,0,.1,0,.15-.03.05-.02.1-.05.14-.09.04-.04.08-.08.11-.14.03-.05.04-.11.04-.17v-3.83h-1.2v1.84Z" fill="#fff"/>
        <path d="m665.39,71.56v.17s-.12-.13-.12-.13l-1.65-1.77c-.08-.09-.28-.22-.47-.22-.06,0-.12.01-.17.04-.19.1-.28.31-.28.65v3.54h1.22v-1.75s0-.17,0-.17l.12.13,1.52,1.64c.07.08.16.14.26.2.1.06.21.08.33.08.05,0,.1,0,.15-.03.05-.02.1-.05.14-.09.04-.04.08-.08.11-.14.03-.05.04-.11.04-.17v-3.83h-1.2v1.84Z" fill="#fff"/>
        <path d="m648.52,70.6c0,.4-.05.68-.16.88-.12.2-.31.31-.57.31s-.45-.1-.57-.31c-.11-.19-.16-.48-.16-.88v-.88h-1.23v.8c0,.26.03.51.09.74.06.23.15.43.27.6.11.17.25.32.42.44.16.12.34.2.54.26h.05v1.29h1.26v-1.28h.05c.2-.07.38-.15.53-.27.15-.12.29-.26.39-.43.11-.17.19-.38.25-.6.06-.23.08-.48.08-.74v-.8h-1.23v.88Z" fill="#fff"/>
        <polygon points="650.55 70.69 651.73 70.69 651.8 70.69 651.8 70.76 651.8 73.85 653.06 73.85 653.06 70.76 653.06 70.69 653.13 70.69 654.37 70.69 654.37 69.72 650.54 69.72 650.55 70.69" fill="#fff"/>
        <polygon points="657.64 71.4 657.64 71.47 657.57 71.47 656.51 71.47 656.45 71.47 656.45 71.4 656.45 69.72 655.19 69.72 655.19 73.85 656.44 73.85 656.44 72.44 656.44 72.37 656.51 72.37 657.57 72.37 657.64 72.37 657.64 72.44 657.64 73.85 658.9 73.85 658.9 69.72 657.64 69.72 657.64 71.4" fill="#fff"/>
        <rect x="660.11" y="69.72" width="1.25" height="4.13" fill="#fff"/>
        <path d="m671.37,71.86s-.08-.09-.13-.12c-.05-.03-.12-.05-.19-.05h-1.65v.73h.94v.07c0,.09-.03.17-.08.23-.05.06-.11.11-.19.15-.07.04-.16.07-.25.09-.09.02-.18.03-.27.03-.6,0-.91-.42-.91-1.26,0-.2.03-.38.08-.53.05-.15.12-.28.21-.37.09-.1.19-.17.3-.22.11-.05.23-.07.35-.07s.23,0,.34.03c.11.02.2.04.28.07.09.03.16.08.21.13.06.06.09.13.09.21,0,.04,0,.09-.03.14.27-.04.46-.1.59-.19.13-.08.19-.22.19-.42,0-.12-.04-.23-.11-.34-.08-.11-.19-.21-.33-.29-.15-.09-.32-.16-.52-.21-.2-.05-.43-.08-.67-.08h-.05c-.28,0-.55.05-.8.14-.25.09-.47.23-.66.41-.19.18-.35.4-.46.67-.11.27-.17.58-.17.94s.06.67.17.94c.12.27.27.5.46.68.19.18.42.32.67.41.25.09.51.14.78.14.31,0,.58-.05.82-.14.24-.09.44-.21.61-.37.17-.15.29-.33.38-.54.09-.21.13-.43.13-.66,0-.07,0-.13-.03-.2-.02-.06-.05-.12-.08-.18Z" fill="#fff"/>
        <path d="m680.63,71.26c-.15-.12-.33-.21-.53-.27-.21-.06-.44-.09-.68-.09s-.47.03-.68.09c-.2.06-.38.14-.53.26-.15.12-.26.27-.35.46-.08.19-.13.42-.13.69s.04.49.13.68c.08.19.2.35.35.47.15.12.33.22.53.28.21.06.43.09.68.09s.48-.03.68-.09c.2-.06.38-.15.53-.27.15-.12.26-.28.34-.47.08-.19.12-.42.12-.69s-.04-.49-.12-.68c-.08-.19-.2-.34-.34-.46Zm-.75,1.56c-.09.12-.25.19-.47.19s-.37-.07-.46-.19c-.08-.12-.13-.26-.13-.42,0-.17.04-.31.13-.43.09-.12.24-.18.46-.18s.37.06.47.18c.09.12.13.26.13.43s-.04.31-.13.43Z" fill="#fff"/>
        <path d="m683.84,70.92c-.17,0-.33.04-.45.11-.13.08-.25.16-.35.24l-.11.09v-.37h-1.14v2.86h1.14v-1.63l.02-.02c.09-.1.19-.17.31-.22.12-.05.22-.07.31-.07.1,0,.2.03.28.08.09.05.14.12.17.21h0s.21-1.21.21-1.21c-.04-.02-.09-.04-.17-.05-.09-.01-.17-.02-.22-.02Z" fill="#fff"/>
        <path d="m691.18,70.06c-.28-.23-.67-.34-1.16-.34h-1.95s0,3.47,0,3.47c0,.09-.03.16-.09.19-.05.03-.1.05-.14.05-.04,0-.09,0-.15-.03-.03-.01-.07-.03-.1-.05.03.06.06.13.11.19.06.08.14.15.22.2.09.06.19.11.3.14.11.03.23.05.35.05.08,0,.17-.02.25-.05.09-.03.17-.08.24-.15.07-.07.13-.15.18-.25.04-.08.06-.18.07-.29v-.66s0-.07,0-.07h.69c.24,0,.45-.03.65-.09.19-.06.36-.15.5-.27.14-.11.25-.26.32-.43.08-.17.12-.37.12-.59,0-.46-.14-.81-.41-1.04Zm-.94,1.46c-.11.12-.26.18-.45.18h-.47v-1.14h.52c.18,0,.32.05.42.15.1.1.15.24.15.4s-.06.29-.17.41Z" fill="#fff"/>
        <path d="m693.65,72.7v-.4h1.62v-.89h-1.63v-.07s0-.61,0-.61v-.07s.07,0,.07,0h1.97s0-.95,0-.95h-3.29s0,3.48,0,3.48c0,.2.07.35.22.47.15.12.34.18.58.18h2.56v-.96h-1.92c-.11,0-.18-.07-.18-.19Z" fill="#fff"/>
        <polygon points="696.4 70.69 697.58 70.69 697.65 70.69 697.65 70.76 697.65 73.85 698.91 73.85 698.91 70.76 698.91 70.69 698.98 70.69 700.22 70.69 700.22 69.72 696.39 69.72 696.4 70.69" fill="#fff"/>
        <path d="m704.18,72.24c-.04-.11-.08-.2-.14-.27-.06-.08-.13-.14-.21-.2-.08-.06-.17-.11-.26-.15-.17-.08-.35-.15-.54-.19-.2-.04-.38-.08-.54-.12-.17-.04-.31-.08-.42-.13-.17-.08-.2-.19-.2-.28s.04-.2.23-.27c.13-.05.29-.07.48-.07.12,0,.23,0,.34.03.11.02.2.04.28.07.09.03.16.08.21.13.06.06.09.13.09.21,0,.04,0,.09-.03.14.27-.04.46-.1.59-.19.13-.08.19-.22.19-.42,0-.12-.04-.23-.12-.34-.08-.11-.19-.21-.34-.3-.15-.09-.33-.16-.54-.21-.21-.05-.44-.08-.69-.08-.19,0-.4.03-.62.07-.22.05-.43.13-.62.24-.19.11-.35.25-.47.43-.12.17-.18.38-.18.63s.05.47.15.64c.1.17.24.31.42.4.17.09.35.16.53.21.19.05.37.09.53.12.17.03.3.07.41.11.17.06.2.16.2.23,0,.08-.03.15-.09.2-.05.04-.11.07-.18.09-.07.02-.14.04-.21.04-.07,0-.13,0-.18,0-.27,0-.53-.04-.78-.11-.24-.07-.47-.17-.69-.27,0,0,0,0,0,0,0,0-.02.02-.02.03v.84s0,.02,0,.02c.06.04.15.09.25.13.1.05.22.09.35.14.14.04.29.08.46.1.17.03.36.04.55.04s.42-.02.64-.07c.22-.05.42-.12.61-.23.18-.1.33-.24.45-.41.12-.17.17-.38.17-.62,0-.14-.02-.27-.05-.37Z" fill="#fff"/>
        <path d="m677.14,70.35l.17-.78c-1.05-.47-2.19.29-2,1.54h-.36v.71h.36v1.56c-.02.36-.32-.02-.39.12.18.68,1.46.91,1.47-.16,0,0,0-1.52,0-1.52h.81v-.71h-.81v-.28c.01-.47.4-.66.74-.48Z" fill="#fff"/>
      </g>
    </g>
  </g>
  <g id="g" data-name="rect">
    <rect width="728" height="90" fill="none"/>
  </g>
</svg>